  0
SECTION
  2
BLOCKS
  0
ENDSEC
  0
SECTION
  2
ENTITIES
  0
LINE
  8
0
 10
28.1072
 20
-147.343
 11
46.3525
 21
-142.658
  0
LINE
  8
0
 10
46.3525
 20
-142.658
 11
63.8669
 21
-135.724
  0
LINE
  8
0
 10
63.8669
 20
-135.724
 11
80.374
 21
-126.649
  0
LINE
  8
0
 10
80.374
 20
-126.649
 11
95.6136
 21
-115.577
  0
LINE
  8
0
 10
95.6136
 20
-115.577
 11
101
 21
-110.519
  0
LINE
  8
0
 10
101
 20
-110.519
 11
101
 21
-10
  0
LINE
  8
0
 10
101
 20
-10
 11
149.371
 21
-10
  0
LINE
  8
0
 10
149.371
 20
-10
 11
150
 21
0
  0
LINE
  8
0
 10
150
 20
0
 11
148.817
 21
18.8
  0
LINE
  8
0
 10
148.817
 20
18.8
 11
145.287
 21
37.3035
  0
LINE
  8
0
 10
145.287
 20
37.3035
 11
139.466
 21
55.2187
  0
LINE
  8
0
 10
139.466
 20
55.2187
 11
131.446
 21
72.263
  0
LINE
  8
0
 10
131.446
 20
72.263
 11
121.353
 21
88.1678
  0
LINE
  8
0
 10
121.353
 20
88.1678
 11
109.345
 21
102.682
  0
LINE
  8
0
 10
109.345
 20
102.682
 11
95.6136
 21
115.577
  0
LINE
  8
0
 10
95.6136
 20
115.577
 11
80.374
 21
126.649
  0
LINE
  8
0
 10
80.374
 20
126.649
 11
63.8669
 21
135.724
  0
LINE
  8
0
 10
63.8669
 20
135.724
 11
46.3525
 21
142.658
  0
LINE
  8
0
 10
46.3525
 20
142.658
 11
28.1072
 21
147.343
  0
LINE
  8
0
 10
28.1072
 20
147.343
 11
9.41856
 21
149.704
  0
LINE
  8
0
 10
9.41856
 20
149.704
 11
-9.41856
 21
149.704
  0
LINE
  8
0
 10
-9.41856
 20
149.704
 11
-28.1072
 21
147.343
  0
LINE
  8
0
 10
-28.1072
 20
147.343
 11
-46.3525
 21
142.658
  0
LINE
  8
0
 10
-46.3525
 20
142.658
 11
-63.8669
 21
135.724
  0
LINE
  8
0
 10
-63.8669
 20
135.724
 11
-80.374
 21
126.649
  0
LINE
  8
0
 10
-80.374
 20
126.649
 11
-95.6136
 21
115.577
  0
LINE
  8
0
 10
-95.6136
 20
115.577
 11
-109.345
 21
102.682
  0
LINE
  8
0
 10
-109.345
 20
102.682
 11
-121.353
 21
88.1678
  0
LINE
  8
0
 10
-121.353
 20
88.1678
 11
-131.446
 21
72.263
  0
LINE
  8
0
 10
-131.446
 20
72.263
 11
-139.466
 21
55.2187
  0
LINE
  8
0
 10
-139.466
 20
55.2187
 11
-145.287
 21
37.3035
  0
LINE
  8
0
 10
-145.287
 20
37.3035
 11
-148.817
 21
18.8
  0
LINE
  8
0
 10
-148.817
 20
18.8
 11
-150
 21
0
  0
LINE
  8
0
 10
-150
 20
0
 11
-149.371
 21
-10
  0
LINE
  8
0
 10
-149.371
 20
-10
 11
-101
 21
-10
  0
LINE
  8
0
 10
-101
 20
-10
 11
-101
 21
-110.519
  0
LINE
  8
0
 10
-101
 20
-110.519
 11
-95.6136
 21
-115.577
  0
LINE
  8
0
 10
-95.6136
 20
-115.577
 11
-80.374
 21
-126.649
  0
LINE
  8
0
 10
-80.374
 20
-126.649
 11
-63.8669
 21
-135.724
  0
LINE
  8
0
 10
-63.8669
 20
-135.724
 11
-46.3525
 21
-142.658
  0
LINE
  8
0
 10
-46.3525
 20
-142.658
 11
-28.1072
 21
-147.343
  0
LINE
  8
0
 10
-28.1072
 20
-147.343
 11
-9.41856
 21
-149.704
  0
LINE
  8
0
 10
-9.41856
 20
-149.704
 11
9.41856
 21
-149.704
  0
LINE
  8
0
 10
9.41856
 20
-149.704
 11
28.1072
 21
-147.343
  0
LINE
  8
0
 10
-2.19766
 20
35.0691
 11
-6.55833
 21
35.6199
  0
LINE
  8
0
 10
-6.55833
 20
35.6199
 11
-10.8156
 21
36.713
  0
LINE
  8
0
 10
-10.8156
 20
36.713
 11
-14.9023
 21
38.3311
  0
LINE
  8
0
 10
-14.9023
 20
38.3311
 11
-18.7539
 21
40.4485
  0
LINE
  8
0
 10
-18.7539
 20
40.4485
 11
-22.3098
 21
43.032
  0
LINE
  8
0
 10
-22.3098
 20
43.032
 11
-25.5139
 21
46.0408
  0
LINE
  8
0
 10
-25.5139
 20
46.0408
 11
-28.3156
 21
49.4275
  0
LINE
  8
0
 10
-28.3156
 20
49.4275
 11
-30.6707
 21
53.1386
  0
LINE
  8
0
 10
-30.6707
 20
53.1386
 11
-32.5422
 21
57.1156
  0
LINE
  8
0
 10
-32.5422
 20
57.1156
 11
-33.9004
 21
61.2959
  0
LINE
  8
0
 10
-33.9004
 20
61.2959
 11
-34.724
 21
65.6133
  0
LINE
  8
0
 10
-34.724
 20
65.6133
 11
-35
 21
70
  0
LINE
  8
0
 10
-35
 20
70
 11
-34.724
 21
74.3867
  0
LINE
  8
0
 10
-34.724
 20
74.3867
 11
-33.9004
 21
78.7041
  0
LINE
  8
0
 10
-33.9004
 20
78.7041
 11
-32.5422
 21
82.8844
  0
LINE
  8
0
 10
-32.5422
 20
82.8844
 11
-30.6707
 21
86.8614
  0
LINE
  8
0
 10
-30.6707
 20
86.8614
 11
-28.3156
 21
90.5725
  0
LINE
  8
0
 10
-28.3156
 20
90.5725
 11
-25.5139
 21
93.9592
  0
LINE
  8
0
 10
-25.5139
 20
93.9592
 11
-22.3098
 21
96.968
  0
LINE
  8
0
 10
-22.3098
 20
96.968
 11
-18.7539
 21
99.5515
  0
LINE
  8
0
 10
-18.7539
 20
99.5515
 11
-14.9023
 21
101.669
  0
LINE
  8
0
 10
-14.9023
 20
101.669
 11
-10.8156
 21
103.287
  0
LINE
  8
0
 10
-10.8156
 20
103.287
 11
-6.55833
 21
104.38
  0
LINE
  8
0
 10
-6.55833
 20
104.38
 11
-2.19766
 21
104.931
  0
LINE
  8
0
 10
-2.19766
 20
104.931
 11
2.19766
 21
104.931
  0
LINE
  8
0
 10
2.19766
 20
104.931
 11
6.55833
 21
104.38
  0
LINE
  8
0
 10
6.55833
 20
104.38
 11
10.8156
 21
103.287
  0
LINE
  8
0
 10
10.8156
 20
103.287
 11
14.9023
 21
101.669
  0
LINE
  8
0
 10
14.9023
 20
101.669
 11
18.7539
 21
99.5515
  0
LINE
  8
0
 10
18.7539
 20
99.5515
 11
22.3098
 21
96.968
  0
LINE
  8
0
 10
22.3098
 20
96.968
 11
25.5139
 21
93.9592
  0
LINE
  8
0
 10
25.5139
 20
93.9592
 11
28.3156
 21
90.5725
  0
LINE
  8
0
 10
28.3156
 20
90.5725
 11
30.6707
 21
86.8614
  0
LINE
  8
0
 10
30.6707
 20
86.8614
 11
32.5422
 21
82.8844
  0
LINE
  8
0
 10
32.5422
 20
82.8844
 11
33.9004
 21
78.7041
  0
LINE
  8
0
 10
33.9004
 20
78.7041
 11
34.724
 21
74.3867
  0
LINE
  8
0
 10
34.724
 20
74.3867
 11
35
 21
70
  0
LINE
  8
0
 10
35
 20
70
 11
34.724
 21
65.6133
  0
LINE
  8
0
 10
34.724
 20
65.6133
 11
33.9004
 21
61.2959
  0
LINE
  8
0
 10
33.9004
 20
61.2959
 11
32.5422
 21
57.1156
  0
LINE
  8
0
 10
32.5422
 20
57.1156
 11
30.6707
 21
53.1386
  0
LINE
  8
0
 10
30.6707
 20
53.1386
 11
28.3156
 21
49.4275
  0
LINE
  8
0
 10
28.3156
 20
49.4275
 11
25.5139
 21
46.0408
  0
LINE
  8
0
 10
25.5139
 20
46.0408
 11
22.3098
 21
43.032
  0
LINE
  8
0
 10
22.3098
 20
43.032
 11
18.7539
 21
40.4485
  0
LINE
  8
0
 10
18.7539
 20
40.4485
 11
14.9023
 21
38.3311
  0
LINE
  8
0
 10
14.9023
 20
38.3311
 11
10.8156
 21
36.713
  0
LINE
  8
0
 10
10.8156
 20
36.713
 11
6.55833
 21
35.6199
  0
LINE
  8
0
 10
6.55833
 20
35.6199
 11
2.19766
 21
35.0691
  0
LINE
  8
0
 10
2.19766
 20
35.0691
 11
-2.19766
 21
35.0691
  0
LINE
  8
0
 10
-34.8895
 20
88.5308
 11
-35.0717
 21
88.5735
  0
LINE
  8
0
 10
-35.0717
 20
88.5735
 11
-35.2471
 21
88.6387
  0
LINE
  8
0
 10
-35.2471
 20
88.6387
 11
-35.4129
 21
88.7254
  0
LINE
  8
0
 10
-35.4129
 20
88.7254
 11
-35.5666
 21
88.8322
  0
LINE
  8
0
 10
-35.5666
 20
88.8322
 11
-35.7056
 21
88.9574
  0
LINE
  8
0
 10
-35.7056
 20
88.9574
 11
-35.8279
 21
89.0991
  0
LINE
  8
0
 10
-35.8279
 20
89.0991
 11
-35.9315
 21
89.2549
  0
LINE
  8
0
 10
-35.9315
 20
89.2549
 11
-36.0147
 21
89.4226
  0
LINE
  8
0
 10
-36.0147
 20
89.4226
 11
-36.0762
 21
89.5993
  0
LINE
  8
0
 10
-36.0762
 20
89.5993
 11
-36.1151
 21
89.7823
  0
LINE
  8
0
 10
-36.1151
 20
89.7823
 11
-36.1308
 21
89.9688
  0
LINE
  8
0
 10
-36.1308
 20
89.9688
 11
-36.1229
 21
90.1557
  0
LINE
  8
0
 10
-36.1229
 20
90.1557
 11
-36.0917
 21
90.3403
  0
LINE
  8
0
 10
-36.0917
 20
90.3403
 11
-36.0377
 21
90.5194
  0
LINE
  8
0
 10
-36.0377
 20
90.5194
 11
-35.9615
 21
90.6904
  0
LINE
  8
0
 10
-35.9615
 20
90.6904
 11
-35.8646
 21
90.8504
  0
LINE
  8
0
 10
-35.8646
 20
90.8504
 11
-35.7484
 21
90.9971
  0
LINE
  8
0
 10
-35.7484
 20
90.9971
 11
-35.6147
 21
91.128
  0
LINE
  8
0
 10
-35.6147
 20
91.128
 11
-35.4656
 21
91.2411
  0
LINE
  8
0
 10
-35.4656
 20
91.2411
 11
-35.3036
 21
91.3347
  0
LINE
  8
0
 10
-35.3036
 20
91.3347
 11
-35.1311
 21
91.4072
  0
LINE
  8
0
 10
-35.1311
 20
91.4072
 11
-34.9508
 21
91.4575
  0
LINE
  8
0
 10
-34.9508
 20
91.4575
 11
-34.7657
 21
91.4849
  0
LINE
  8
0
 10
-34.7657
 20
91.4849
 11
-34.5786
 21
91.4888
  0
LINE
  8
0
 10
-34.5786
 20
91.4888
 11
-34.3925
 21
91.4692
  0
LINE
  8
0
 10
-34.3925
 20
91.4692
 11
-34.2103
 21
91.4265
  0
LINE
  8
0
 10
-34.2103
 20
91.4265
 11
-34.0349
 21
91.3613
  0
LINE
  8
0
 10
-34.0349
 20
91.3613
 11
-33.8691
 21
91.2746
  0
LINE
  8
0
 10
-33.8691
 20
91.2746
 11
-33.7154
 21
91.1678
  0
LINE
  8
0
 10
-33.7154
 20
91.1678
 11
-33.5764
 21
91.0426
  0
LINE
  8
0
 10
-33.5764
 20
91.0426
 11
-33.4541
 21
90.9009
  0
LINE
  8
0
 10
-33.4541
 20
90.9009
 11
-33.3505
 21
90.745
  0
LINE
  8
0
 10
-33.3505
 20
90.745
 11
-33.2673
 21
90.5774
  0
LINE
  8
0
 10
-33.2673
 20
90.5774
 11
-33.2058
 21
90.4007
  0
LINE
  8
0
 10
-33.2058
 20
90.4007
 11
-33.1669
 21
90.2177
  0
LINE
  8
0
 10
-33.1669
 20
90.2177
 11
-33.1512
 21
90.0312
  0
LINE
  8
0
 10
-33.1512
 20
90.0312
 11
-33.1591
 21
89.8442
  0
LINE
  8
0
 10
-33.1591
 20
89.8442
 11
-33.1903
 21
89.6597
  0
LINE
  8
0
 10
-33.1903
 20
89.6597
 11
-33.2444
 21
89.4806
  0
LINE
  8
0
 10
-33.2444
 20
89.4806
 11
-33.3205
 21
89.3096
  0
LINE
  8
0
 10
-33.3205
 20
89.3096
 11
-33.4174
 21
89.1496
  0
LINE
  8
0
 10
-33.4174
 20
89.1496
 11
-33.5336
 21
89.0029
  0
LINE
  8
0
 10
-33.5336
 20
89.0029
 11
-33.6673
 21
88.872
  0
LINE
  8
0
 10
-33.6673
 20
88.872
 11
-33.8164
 21
88.7589
  0
LINE
  8
0
 10
-33.8164
 20
88.7589
 11
-33.9785
 21
88.6653
  0
LINE
  8
0
 10
-33.9785
 20
88.6653
 11
-34.151
 21
88.5928
  0
LINE
  8
0
 10
-34.151
 20
88.5928
 11
-34.3312
 21
88.5425
  0
LINE
  8
0
 10
-34.3312
 20
88.5425
 11
-34.5163
 21
88.5151
  0
LINE
  8
0
 10
-34.5163
 20
88.5151
 11
-34.7034
 21
88.5112
  0
LINE
  8
0
 10
-34.7034
 20
88.5112
 11
-34.8895
 21
88.5308
  0
LINE
  8
0
 10
34.3925
 20
88.5308
 11
34.2103
 21
88.5735
  0
LINE
  8
0
 10
34.2103
 20
88.5735
 11
34.0349
 21
88.6387
  0
LINE
  8
0
 10
34.0349
 20
88.6387
 11
33.8691
 21
88.7254
  0
LINE
  8
0
 10
33.8691
 20
88.7254
 11
33.7154
 21
88.8322
  0
LINE
  8
0
 10
33.7154
 20
88.8322
 11
33.5764
 21
88.9574
  0
LINE
  8
0
 10
33.5764
 20
88.9574
 11
33.4541
 21
89.0991
  0
LINE
  8
0
 10
33.4541
 20
89.0991
 11
33.3505
 21
89.2549
  0
LINE
  8
0
 10
33.3505
 20
89.2549
 11
33.2673
 21
89.4226
  0
LINE
  8
0
 10
33.2673
 20
89.4226
 11
33.2058
 21
89.5993
  0
LINE
  8
0
 10
33.2058
 20
89.5993
 11
33.1669
 21
89.7823
  0
LINE
  8
0
 10
33.1669
 20
89.7823
 11
33.1512
 21
89.9688
  0
LINE
  8
0
 10
33.1512
 20
89.9688
 11
33.1591
 21
90.1557
  0
LINE
  8
0
 10
33.1591
 20
90.1557
 11
33.1903
 21
90.3403
  0
LINE
  8
0
 10
33.1903
 20
90.3403
 11
33.2444
 21
90.5194
  0
LINE
  8
0
 10
33.2444
 20
90.5194
 11
33.3205
 21
90.6904
  0
LINE
  8
0
 10
33.3205
 20
90.6904
 11
33.4174
 21
90.8504
  0
LINE
  8
0
 10
33.4174
 20
90.8504
 11
33.5336
 21
90.9971
  0
LINE
  8
0
 10
33.5336
 20
90.9971
 11
33.6673
 21
91.128
  0
LINE
  8
0
 10
33.6673
 20
91.128
 11
33.8164
 21
91.2411
  0
LINE
  8
0
 10
33.8164
 20
91.2411
 11
33.9785
 21
91.3347
  0
LINE
  8
0
 10
33.9785
 20
91.3347
 11
34.151
 21
91.4072
  0
LINE
  8
0
 10
34.151
 20
91.4072
 11
34.3312
 21
91.4575
  0
LINE
  8
0
 10
34.3312
 20
91.4575
 11
34.5163
 21
91.4849
  0
LINE
  8
0
 10
34.5163
 20
91.4849
 11
34.7034
 21
91.4888
  0
LINE
  8
0
 10
34.7034
 20
91.4888
 11
34.8895
 21
91.4692
  0
LINE
  8
0
 10
34.8895
 20
91.4692
 11
35.0717
 21
91.4265
  0
LINE
  8
0
 10
35.0717
 20
91.4265
 11
35.2471
 21
91.3613
  0
LINE
  8
0
 10
35.2471
 20
91.3613
 11
35.4129
 21
91.2746
  0
LINE
  8
0
 10
35.4129
 20
91.2746
 11
35.5666
 21
91.1678
  0
LINE
  8
0
 10
35.5666
 20
91.1678
 11
35.7056
 21
91.0426
  0
LINE
  8
0
 10
35.7056
 20
91.0426
 11
35.8279
 21
90.9009
  0
LINE
  8
0
 10
35.8279
 20
90.9009
 11
35.9315
 21
90.745
  0
LINE
  8
0
 10
35.9315
 20
90.745
 11
36.0147
 21
90.5774
  0
LINE
  8
0
 10
36.0147
 20
90.5774
 11
36.0762
 21
90.4007
  0
LINE
  8
0
 10
36.0762
 20
90.4007
 11
36.1151
 21
90.2177
  0
LINE
  8
0
 10
36.1151
 20
90.2177
 11
36.1308
 21
90.0312
  0
LINE
  8
0
 10
36.1308
 20
90.0312
 11
36.1229
 21
89.8442
  0
LINE
  8
0
 10
36.1229
 20
89.8442
 11
36.0917
 21
89.6597
  0
LINE
  8
0
 10
36.0917
 20
89.6597
 11
36.0377
 21
89.4806
  0
LINE
  8
0
 10
36.0377
 20
89.4806
 11
35.9615
 21
89.3096
  0
LINE
  8
0
 10
35.9615
 20
89.3096
 11
35.8646
 21
89.1496
  0
LINE
  8
0
 10
35.8646
 20
89.1496
 11
35.7484
 21
89.0029
  0
LINE
  8
0
 10
35.7484
 20
89.0029
 11
35.6147
 21
88.872
  0
LINE
  8
0
 10
35.6147
 20
88.872
 11
35.4656
 21
88.7589
  0
LINE
  8
0
 10
35.4656
 20
88.7589
 11
35.3036
 21
88.6653
  0
LINE
  8
0
 10
35.3036
 20
88.6653
 11
35.1311
 21
88.5928
  0
LINE
  8
0
 10
35.1311
 20
88.5928
 11
34.9508
 21
88.5425
  0
LINE
  8
0
 10
34.9508
 20
88.5425
 11
34.7657
 21
88.5151
  0
LINE
  8
0
 10
34.7657
 20
88.5151
 11
34.5786
 21
88.5112
  0
LINE
  8
0
 10
34.5786
 20
88.5112
 11
34.3925
 21
88.5308
  0
LINE
  8
0
 10
-90.9327
 20
66.6421
 11
-83.8616
 21
73.7132
  0
LINE
  8
0
 10
-83.8616
 20
73.7132
 11
-76.7905
 21
66.6421
  0
LINE
  8
0
 10
-76.7905
 20
66.6421
 11
-83.8616
 21
59.5711
  0
LINE
  8
0
 10
-83.8616
 20
59.5711
 11
-90.9327
 21
66.6421
  0
LINE
  8
0
 10
76.7905
 20
66.6421
 11
83.8616
 21
73.7132
  0
LINE
  8
0
 10
83.8616
 20
73.7132
 11
90.9327
 21
66.6421
  0
LINE
  8
0
 10
90.9327
 20
66.6421
 11
83.8616
 21
59.5711
  0
LINE
  8
0
 10
83.8616
 20
59.5711
 11
76.7905
 21
66.6421
  0
LINE
  8
0
 10
-94.7013
 20
54.5638
 11
-94.8839
 21
54.6046
  0
LINE
  8
0
 10
-94.8839
 20
54.6046
 11
-95.06
 21
54.668
  0
LINE
  8
0
 10
-95.06
 20
54.668
 11
-95.2267
 21
54.7529
  0
LINE
  8
0
 10
-95.2267
 20
54.7529
 11
-95.3815
 21
54.8581
  0
LINE
  8
0
 10
-95.3815
 20
54.8581
 11
-95.5219
 21
54.9819
  0
LINE
  8
0
 10
-95.5219
 20
54.9819
 11
-95.6456
 21
55.1222
  0
LINE
  8
0
 10
-95.6456
 20
55.1222
 11
-95.7508
 21
55.277
  0
LINE
  8
0
 10
-95.7508
 20
55.277
 11
-95.8357
 21
55.4437
  0
LINE
  8
0
 10
-95.8357
 20
55.4437
 11
-95.8991
 21
55.6198
  0
LINE
  8
0
 10
-95.8991
 20
55.6198
 11
-95.94
 21
55.8024
  0
LINE
  8
0
 10
-95.94
 20
55.8024
 11
-95.9576
 21
55.9887
  0
LINE
  8
0
 10
-95.9576
 20
55.9887
 11
-95.9517
 21
56.1758
  0
LINE
  8
0
 10
-95.9517
 20
56.1758
 11
-95.9224
 21
56.3606
  0
LINE
  8
0
 10
-95.9224
 20
56.3606
 11
-95.8702
 21
56.5403
  0
LINE
  8
0
 10
-95.8702
 20
56.5403
 11
-95.7959
 21
56.712
  0
LINE
  8
0
 10
-95.7959
 20
56.712
 11
-95.7006
 21
56.8731
  0
LINE
  8
0
 10
-95.7006
 20
56.8731
 11
-95.5859
 21
57.021
  0
LINE
  8
0
 10
-95.5859
 20
57.021
 11
-95.4536
 21
57.1533
  0
LINE
  8
0
 10
-95.4536
 20
57.1533
 11
-95.3058
 21
57.268
  0
LINE
  8
0
 10
-95.3058
 20
57.268
 11
-95.1447
 21
57.3632
  0
LINE
  8
0
 10
-95.1447
 20
57.3632
 11
-94.9729
 21
57.4375
  0
LINE
  8
0
 10
-94.9729
 20
57.4375
 11
-94.7933
 21
57.4897
  0
LINE
  8
0
 10
-94.7933
 20
57.4897
 11
-94.6084
 21
57.519
  0
LINE
  8
0
 10
-94.6084
 20
57.519
 11
-94.4214
 21
57.5249
  0
LINE
  8
0
 10
-94.4214
 20
57.5249
 11
-94.2351
 21
57.5073
  0
LINE
  8
0
 10
-94.2351
 20
57.5073
 11
-94.0525
 21
57.4665
  0
LINE
  8
0
 10
-94.0525
 20
57.4665
 11
-93.8764
 21
57.4031
  0
LINE
  8
0
 10
-93.8764
 20
57.4031
 11
-93.7097
 21
57.3181
  0
LINE
  8
0
 10
-93.7097
 20
57.3181
 11
-93.5549
 21
57.2129
  0
LINE
  8
0
 10
-93.5549
 20
57.2129
 11
-93.4145
 21
57.0892
  0
LINE
  8
0
 10
-93.4145
 20
57.0892
 11
-93.2908
 21
56.9488
  0
LINE
  8
0
 10
-93.2908
 20
56.9488
 11
-93.1856
 21
56.7941
  0
LINE
  8
0
 10
-93.1856
 20
56.7941
 11
-93.1006
 21
56.6273
  0
LINE
  8
0
 10
-93.1006
 20
56.6273
 11
-93.0373
 21
56.4512
  0
LINE
  8
0
 10
-93.0373
 20
56.4512
 11
-92.9964
 21
56.2686
  0
LINE
  8
0
 10
-92.9964
 20
56.2686
 11
-92.9788
 21
56.0823
  0
LINE
  8
0
 10
-92.9788
 20
56.0823
 11
-92.9847
 21
55.8953
  0
LINE
  8
0
 10
-92.9847
 20
55.8953
 11
-93.014
 21
55.7105
  0
LINE
  8
0
 10
-93.014
 20
55.7105
 11
-93.0662
 21
55.5308
  0
LINE
  8
0
 10
-93.0662
 20
55.5308
 11
-93.1405
 21
55.359
  0
LINE
  8
0
 10
-93.1405
 20
55.359
 11
-93.2358
 21
55.198
  0
LINE
  8
0
 10
-93.2358
 20
55.198
 11
-93.3505
 21
55.0501
  0
LINE
  8
0
 10
-93.3505
 20
55.0501
 11
-93.4828
 21
54.9178
  0
LINE
  8
0
 10
-93.4828
 20
54.9178
 11
-93.6306
 21
54.8031
  0
LINE
  8
0
 10
-93.6306
 20
54.8031
 11
-93.7917
 21
54.7078
  0
LINE
  8
0
 10
-93.7917
 20
54.7078
 11
-93.9634
 21
54.6335
  0
LINE
  8
0
 10
-93.9634
 20
54.6335
 11
-94.1431
 21
54.5813
  0
LINE
  8
0
 10
-94.1431
 20
54.5813
 11
-94.328
 21
54.552
  0
LINE
  8
0
 10
-94.328
 20
54.552
 11
-94.515
 21
54.5462
  0
LINE
  8
0
 10
-94.515
 20
54.5462
 11
-94.7013
 21
54.5638
  0
LINE
  8
0
 10
94.328
 20
54.552
 11
94.1431
 21
54.5813
  0
LINE
  8
0
 10
94.1431
 20
54.5813
 11
93.9634
 21
54.6335
  0
LINE
  8
0
 10
93.9634
 20
54.6335
 11
93.7917
 21
54.7078
  0
LINE
  8
0
 10
93.7917
 20
54.7078
 11
93.6306
 21
54.8031
  0
LINE
  8
0
 10
93.6306
 20
54.8031
 11
93.4828
 21
54.9178
  0
LINE
  8
0
 10
93.4828
 20
54.9178
 11
93.3505
 21
55.0501
  0
LINE
  8
0
 10
93.3505
 20
55.0501
 11
93.2358
 21
55.198
  0
LINE
  8
0
 10
93.2358
 20
55.198
 11
93.1405
 21
55.359
  0
LINE
  8
0
 10
93.1405
 20
55.359
 11
93.0662
 21
55.5308
  0
LINE
  8
0
 10
93.0662
 20
55.5308
 11
93.014
 21
55.7105
  0
LINE
  8
0
 10
93.014
 20
55.7105
 11
92.9847
 21
55.8953
  0
LINE
  8
0
 10
92.9847
 20
55.8953
 11
92.9788
 21
56.0823
  0
LINE
  8
0
 10
92.9788
 20
56.0823
 11
92.9964
 21
56.2686
  0
LINE
  8
0
 10
92.9964
 20
56.2686
 11
93.0373
 21
56.4512
  0
LINE
  8
0
 10
93.0373
 20
56.4512
 11
93.1006
 21
56.6273
  0
LINE
  8
0
 10
93.1006
 20
56.6273
 11
93.1856
 21
56.7941
  0
LINE
  8
0
 10
93.1856
 20
56.7941
 11
93.2908
 21
56.9488
  0
LINE
  8
0
 10
93.2908
 20
56.9488
 11
93.4145
 21
57.0892
  0
LINE
  8
0
 10
93.4145
 20
57.0892
 11
93.5549
 21
57.2129
  0
LINE
  8
0
 10
93.5549
 20
57.2129
 11
93.7097
 21
57.3181
  0
LINE
  8
0
 10
93.7097
 20
57.3181
 11
93.8764
 21
57.4031
  0
LINE
  8
0
 10
93.8764
 20
57.4031
 11
94.0525
 21
57.4665
  0
LINE
  8
0
 10
94.0525
 20
57.4665
 11
94.2351
 21
57.5073
  0
LINE
  8
0
 10
94.2351
 20
57.5073
 11
94.4214
 21
57.5249
  0
LINE
  8
0
 10
94.4214
 20
57.5249
 11
94.6084
 21
57.519
  0
LINE
  8
0
 10
94.6084
 20
57.519
 11
94.7933
 21
57.4897
  0
LINE
  8
0
 10
94.7933
 20
57.4897
 11
94.9729
 21
57.4375
  0
LINE
  8
0
 10
94.9729
 20
57.4375
 11
95.1447
 21
57.3632
  0
LINE
  8
0
 10
95.1447
 20
57.3632
 11
95.3058
 21
57.268
  0
LINE
  8
0
 10
95.3058
 20
57.268
 11
95.4536
 21
57.1533
  0
LINE
  8
0
 10
95.4536
 20
57.1533
 11
95.5859
 21
57.021
  0
LINE
  8
0
 10
95.5859
 20
57.021
 11
95.7006
 21
56.8731
  0
LINE
  8
0
 10
95.7006
 20
56.8731
 11
95.7959
 21
56.712
  0
LINE
  8
0
 10
95.7959
 20
56.712
 11
95.8702
 21
56.5403
  0
LINE
  8
0
 10
95.8702
 20
56.5403
 11
95.9224
 21
56.3606
  0
LINE
  8
0
 10
95.9224
 20
56.3606
 11
95.9517
 21
56.1758
  0
LINE
  8
0
 10
95.9517
 20
56.1758
 11
95.9576
 21
55.9887
  0
LINE
  8
0
 10
95.9576
 20
55.9887
 11
95.94
 21
55.8024
  0
LINE
  8
0
 10
95.94
 20
55.8024
 11
95.8991
 21
55.6198
  0
LINE
  8
0
 10
95.8991
 20
55.6198
 11
95.8357
 21
55.4437
  0
LINE
  8
0
 10
95.8357
 20
55.4437
 11
95.7508
 21
55.277
  0
LINE
  8
0
 10
95.7508
 20
55.277
 11
95.6456
 21
55.1222
  0
LINE
  8
0
 10
95.6456
 20
55.1222
 11
95.5219
 21
54.9819
  0
LINE
  8
0
 10
95.5219
 20
54.9819
 11
95.3815
 21
54.8581
  0
LINE
  8
0
 10
95.3815
 20
54.8581
 11
95.2267
 21
54.7529
  0
LINE
  8
0
 10
95.2267
 20
54.7529
 11
95.06
 21
54.668
  0
LINE
  8
0
 10
95.06
 20
54.668
 11
94.8839
 21
54.6046
  0
LINE
  8
0
 10
94.8839
 20
54.6046
 11
94.7013
 21
54.5638
  0
LINE
  8
0
 10
94.7013
 20
54.5638
 11
94.515
 21
54.5462
  0
LINE
  8
0
 10
94.515
 20
54.5462
 11
94.328
 21
54.552
  0
LINE
  8
0
 10
98.0037
 20
45.4289
 11
105.075
 21
52.5
  0
LINE
  8
0
 10
105.075
 20
52.5
 11
112.146
 21
45.4289
  0
LINE
  8
0
 10
112.146
 20
45.4289
 11
105.075
 21
38.3579
  0
LINE
  8
0
 10
105.075
 20
38.3579
 11
98.0037
 21
45.4289
  0
LINE
  8
0
 10
-112.146
 20
45.4289
 11
-105.075
 21
52.5
  0
LINE
  8
0
 10
-105.075
 20
52.5
 11
-98.0037
 21
45.4289
  0
LINE
  8
0
 10
-98.0037
 20
45.4289
 11
-105.075
 21
38.3579
  0
LINE
  8
0
 10
-105.075
 20
38.3579
 11
-112.146
 21
45.4289
  0
LINE
  8
0
 10
-0.248489
 20
28.5308
 11
-0.430679
 21
28.5735
  0
LINE
  8
0
 10
-0.430679
 20
28.5735
 11
-0.606064
 21
28.6387
  0
LINE
  8
0
 10
-0.606064
 20
28.6387
 11
-0.771912
 21
28.7254
  0
LINE
  8
0
 10
-0.771912
 20
28.7254
 11
-0.925568
 21
28.8322
  0
LINE
  8
0
 10
-0.925568
 20
28.8322
 11
-1.06462
 21
28.9574
  0
LINE
  8
0
 10
-1.06462
 20
28.9574
 11
-1.1869
 21
29.0991
  0
LINE
  8
0
 10
-1.1869
 20
29.0991
 11
-1.29045
 21
29.2549
  0
LINE
  8
0
 10
-1.29045
 20
29.2549
 11
-1.37366
 21
29.4226
  0
LINE
  8
0
 10
-1.37366
 20
29.4226
 11
-1.4352
 21
29.5993
  0
LINE
  8
0
 10
-1.4352
 20
29.5993
 11
-1.47411
 21
29.7823
  0
LINE
  8
0
 10
-1.47411
 20
29.7823
 11
-1.48976
 21
29.9688
  0
LINE
  8
0
 10
-1.48976
 20
29.9688
 11
-1.48193
 21
30.1557
  0
LINE
  8
0
 10
-1.48193
 20
30.1557
 11
-1.45073
 21
30.3403
  0
LINE
  8
0
 10
-1.45073
 20
30.3403
 11
-1.39664
 21
30.5194
  0
LINE
  8
0
 10
-1.39664
 20
30.5194
 11
-1.32053
 21
30.6904
  0
LINE
  8
0
 10
-1.32053
 20
30.6904
 11
-1.22359
 21
30.8504
  0
LINE
  8
0
 10
-1.22359
 20
30.8504
 11
-1.10735
 21
30.9971
  0
LINE
  8
0
 10
-1.10735
 20
30.9971
 11
-0.973648
 21
31.128
  0
LINE
  8
0
 10
-0.973648
 20
31.128
 11
-0.8246
 21
31.2411
  0
LINE
  8
0
 10
-0.8246
 20
31.2411
 11
-0.662537
 21
31.3347
  0
LINE
  8
0
 10
-0.662537
 20
31.3347
 11
-0.490036
 21
31.4072
  0
LINE
  8
0
 10
-0.490036
 20
31.4072
 11
-0.309799
 21
31.4575
  0
LINE
  8
0
 10
-0.309799
 20
31.4575
 11
-0.12468
 21
31.4849
  0
LINE
  8
0
 10
-0.12468
 20
31.4849
 11
0.0623932
 21
31.4888
  0
LINE
  8
0
 10
0.0623932
 20
31.4888
 11
0.248489
 21
31.4692
  0
LINE
  8
0
 10
0.248489
 20
31.4692
 11
0.430679
 21
31.4265
  0
LINE
  8
0
 10
0.430679
 20
31.4265
 11
0.606064
 21
31.3613
  0
LINE
  8
0
 10
0.606064
 20
31.3613
 11
0.771912
 21
31.2746
  0
LINE
  8
0
 10
0.771912
 20
31.2746
 11
0.925568
 21
31.1678
  0
LINE
  8
0
 10
0.925568
 20
31.1678
 11
1.06462
 21
31.0426
  0
LINE
  8
0
 10
1.06462
 20
31.0426
 11
1.1869
 21
30.9009
  0
LINE
  8
0
 10
1.1869
 20
30.9009
 11
1.29045
 21
30.745
  0
LINE
  8
0
 10
1.29045
 20
30.745
 11
1.37366
 21
30.5774
  0
LINE
  8
0
 10
1.37366
 20
30.5774
 11
1.4352
 21
30.4007
  0
LINE
  8
0
 10
1.4352
 20
30.4007
 11
1.47411
 21
30.2177
  0
LINE
  8
0
 10
1.47411
 20
30.2177
 11
1.48976
 21
30.0312
  0
LINE
  8
0
 10
1.48976
 20
30.0312
 11
1.48193
 21
29.8442
  0
LINE
  8
0
 10
1.48193
 20
29.8442
 11
1.45073
 21
29.6597
  0
LINE
  8
0
 10
1.45073
 20
29.6597
 11
1.39664
 21
29.4806
  0
LINE
  8
0
 10
1.39664
 20
29.4806
 11
1.32053
 21
29.3096
  0
LINE
  8
0
 10
1.32053
 20
29.3096
 11
1.22359
 21
29.1496
  0
LINE
  8
0
 10
1.22359
 20
29.1496
 11
1.10735
 21
29.0029
  0
LINE
  8
0
 10
1.10735
 20
29.0029
 11
0.973648
 21
28.872
  0
LINE
  8
0
 10
0.973648
 20
28.872
 11
0.8246
 21
28.7589
  0
LINE
  8
0
 10
0.8246
 20
28.7589
 11
0.662537
 21
28.6653
  0
LINE
  8
0
 10
0.662537
 20
28.6653
 11
0.490036
 21
28.5928
  0
LINE
  8
0
 10
0.490036
 20
28.5928
 11
0.309799
 21
28.5424
  0
LINE
  8
0
 10
0.309799
 20
28.5424
 11
0.12468
 21
28.5151
  0
LINE
  8
0
 10
0.12468
 20
28.5151
 11
-0.0623932
 21
28.5112
  0
LINE
  8
0
 10
-0.0623932
 20
28.5112
 11
-0.248489
 21
28.5308
  0
LINE
  8
0
 10
-76.1249
 20
-49.4852
 11
-76.3727
 21
-49.4539
  0
LINE
  8
0
 10
-76.3727
 20
-49.4539
 11
-76.6147
 21
-49.3917
  0
LINE
  8
0
 10
-76.6147
 20
-49.3917
 11
-76.8469
 21
-49.2998
  0
LINE
  8
0
 10
-76.8469
 20
-49.2998
 11
-77.0658
 21
-49.1794
  0
LINE
  8
0
 10
-77.0658
 20
-49.1794
 11
-77.2679
 21
-49.0326
  0
LINE
  8
0
 10
-77.2679
 20
-49.0326
 11
-77.45
 21
-48.8616
  0
LINE
  8
0
 10
-77.45
 20
-48.8616
 11
-77.6092
 21
-48.6692
  0
LINE
  8
0
 10
-77.6092
 20
-48.6692
 11
-77.7431
 21
-48.4583
  0
LINE
  8
0
 10
-77.7431
 20
-48.4583
 11
-77.8494
 21
-48.2322
  0
LINE
  8
0
 10
-77.8494
 20
-48.2322
 11
-77.9266
 21
-47.9947
  0
LINE
  8
0
 10
-77.9266
 20
-47.9947
 11
-77.9734
 21
-47.7493
  0
LINE
  8
0
 10
-77.9734
 20
-47.7493
 11
-77.9891
 21
-47.5
  0
LINE
  8
0
 10
-77.9891
 20
-47.5
 11
-77.9734
 21
-47.2507
  0
LINE
  8
0
 10
-77.9734
 20
-47.2507
 11
-77.9266
 21
-47.0053
  0
LINE
  8
0
 10
-77.9266
 20
-47.0053
 11
-77.8494
 21
-46.7678
  0
LINE
  8
0
 10
-77.8494
 20
-46.7678
 11
-77.7431
 21
-46.5417
  0
LINE
  8
0
 10
-77.7431
 20
-46.5417
 11
-77.6092
 21
-46.3308
  0
LINE
  8
0
 10
-77.6092
 20
-46.3308
 11
-77.45
 21
-46.1384
  0
LINE
  8
0
 10
-77.45
 20
-46.1384
 11
-77.2679
 21
-45.9674
  0
LINE
  8
0
 10
-77.2679
 20
-45.9674
 11
-77.0658
 21
-45.8205
  0
LINE
  8
0
 10
-77.0658
 20
-45.8205
 11
-76.8469
 21
-45.7002
  0
LINE
  8
0
 10
-76.8469
 20
-45.7002
 11
-76.6147
 21
-45.6082
  0
LINE
  8
0
 10
-76.6147
 20
-45.6082
 11
-76.3727
 21
-45.5461
  0
LINE
  8
0
 10
-76.3727
 20
-45.5461
 11
-76.1249
 21
-45.5148
  0
LINE
  8
0
 10
-76.1249
 20
-45.5148
 11
-75.8751
 21
-45.5148
  0
LINE
  8
0
 10
-75.8751
 20
-45.5148
 11
-75.6273
 21
-45.5461
  0
LINE
  8
0
 10
-75.6273
 20
-45.5461
 11
-75.3853
 21
-45.6082
  0
LINE
  8
0
 10
-75.3853
 20
-45.6082
 11
-75.1531
 21
-45.7002
  0
LINE
  8
0
 10
-75.1531
 20
-45.7002
 11
-74.9342
 21
-45.8205
  0
LINE
  8
0
 10
-74.9342
 20
-45.8205
 11
-74.7321
 21
-45.9674
  0
LINE
  8
0
 10
-74.7321
 20
-45.9674
 11
-74.55
 21
-46.1384
  0
LINE
  8
0
 10
-74.55
 20
-46.1384
 11
-74.3908
 21
-46.3308
  0
LINE
  8
0
 10
-74.3908
 20
-46.3308
 11
-74.2569
 21
-46.5417
  0
LINE
  8
0
 10
-74.2569
 20
-46.5417
 11
-74.1506
 21
-46.7678
  0
LINE
  8
0
 10
-74.1506
 20
-46.7678
 11
-74.0734
 21
-47.0053
  0
LINE
  8
0
 10
-74.0734
 20
-47.0053
 11
-74.0266
 21
-47.2507
  0
LINE
  8
0
 10
-74.0266
 20
-47.2507
 11
-74.0109
 21
-47.5
  0
LINE
  8
0
 10
-74.0109
 20
-47.5
 11
-74.0266
 21
-47.7493
  0
LINE
  8
0
 10
-74.0266
 20
-47.7493
 11
-74.0734
 21
-47.9947
  0
LINE
  8
0
 10
-74.0734
 20
-47.9947
 11
-74.1506
 21
-48.2322
  0
LINE
  8
0
 10
-74.1506
 20
-48.2322
 11
-74.2569
 21
-48.4583
  0
LINE
  8
0
 10
-74.2569
 20
-48.4583
 11
-74.3908
 21
-48.6692
  0
LINE
  8
0
 10
-74.3908
 20
-48.6692
 11
-74.55
 21
-48.8616
  0
LINE
  8
0
 10
-74.55
 20
-48.8616
 11
-74.7321
 21
-49.0326
  0
LINE
  8
0
 10
-74.7321
 20
-49.0326
 11
-74.9342
 21
-49.1794
  0
LINE
  8
0
 10
-74.9342
 20
-49.1794
 11
-75.1531
 21
-49.2998
  0
LINE
  8
0
 10
-75.1531
 20
-49.2998
 11
-75.3853
 21
-49.3917
  0
LINE
  8
0
 10
-75.3853
 20
-49.3917
 11
-75.6273
 21
-49.4539
  0
LINE
  8
0
 10
-75.6273
 20
-49.4539
 11
-75.8751
 21
-49.4852
  0
LINE
  8
0
 10
-75.8751
 20
-49.4852
 11
-76.1249
 21
-49.4852
  0
LINE
  8
0
 10
75.8751
 20
-49.4852
 11
75.6273
 21
-49.4539
  0
LINE
  8
0
 10
75.6273
 20
-49.4539
 11
75.3853
 21
-49.3917
  0
LINE
  8
0
 10
75.3853
 20
-49.3917
 11
75.1531
 21
-49.2998
  0
LINE
  8
0
 10
75.1531
 20
-49.2998
 11
74.9342
 21
-49.1794
  0
LINE
  8
0
 10
74.9342
 20
-49.1794
 11
74.7321
 21
-49.0326
  0
LINE
  8
0
 10
74.7321
 20
-49.0326
 11
74.55
 21
-48.8616
  0
LINE
  8
0
 10
74.55
 20
-48.8616
 11
74.3908
 21
-48.6692
  0
LINE
  8
0
 10
74.3908
 20
-48.6692
 11
74.2569
 21
-48.4583
  0
LINE
  8
0
 10
74.2569
 20
-48.4583
 11
74.1506
 21
-48.2322
  0
LINE
  8
0
 10
74.1506
 20
-48.2322
 11
74.0734
 21
-47.9947
  0
LINE
  8
0
 10
74.0734
 20
-47.9947
 11
74.0266
 21
-47.7493
  0
LINE
  8
0
 10
74.0266
 20
-47.7493
 11
74.0109
 21
-47.5
  0
LINE
  8
0
 10
74.0109
 20
-47.5
 11
74.0266
 21
-47.2507
  0
LINE
  8
0
 10
74.0266
 20
-47.2507
 11
74.0734
 21
-47.0053
  0
LINE
  8
0
 10
74.0734
 20
-47.0053
 11
74.1506
 21
-46.7678
  0
LINE
  8
0
 10
74.1506
 20
-46.7678
 11
74.2569
 21
-46.5417
  0
LINE
  8
0
 10
74.2569
 20
-46.5417
 11
74.3908
 21
-46.3308
  0
LINE
  8
0
 10
74.3908
 20
-46.3308
 11
74.55
 21
-46.1384
  0
LINE
  8
0
 10
74.55
 20
-46.1384
 11
74.7321
 21
-45.9674
  0
LINE
  8
0
 10
74.7321
 20
-45.9674
 11
74.9342
 21
-45.8205
  0
LINE
  8
0
 10
74.9342
 20
-45.8205
 11
75.1531
 21
-45.7002
  0
LINE
  8
0
 10
75.1531
 20
-45.7002
 11
75.3853
 21
-45.6082
  0
LINE
  8
0
 10
75.3853
 20
-45.6082
 11
75.6273
 21
-45.5461
  0
LINE
  8
0
 10
75.6273
 20
-45.5461
 11
75.8751
 21
-45.5148
  0
LINE
  8
0
 10
75.8751
 20
-45.5148
 11
76.1249
 21
-45.5148
  0
LINE
  8
0
 10
76.1249
 20
-45.5148
 11
76.3727
 21
-45.5461
  0
LINE
  8
0
 10
76.3727
 20
-45.5461
 11
76.6147
 21
-45.6082
  0
LINE
  8
0
 10
76.6147
 20
-45.6082
 11
76.8469
 21
-45.7002
  0
LINE
  8
0
 10
76.8469
 20
-45.7002
 11
77.0658
 21
-45.8205
  0
LINE
  8
0
 10
77.0658
 20
-45.8205
 11
77.2679
 21
-45.9674
  0
LINE
  8
0
 10
77.2679
 20
-45.9674
 11
77.45
 21
-46.1384
  0
LINE
  8
0
 10
77.45
 20
-46.1384
 11
77.6092
 21
-46.3308
  0
LINE
  8
0
 10
77.6092
 20
-46.3308
 11
77.7431
 21
-46.5417
  0
LINE
  8
0
 10
77.7431
 20
-46.5417
 11
77.8494
 21
-46.7678
  0
LINE
  8
0
 10
77.8494
 20
-46.7678
 11
77.9266
 21
-47.0053
  0
LINE
  8
0
 10
77.9266
 20
-47.0053
 11
77.9734
 21
-47.2507
  0
LINE
  8
0
 10
77.9734
 20
-47.2507
 11
77.9891
 21
-47.5
  0
LINE
  8
0
 10
77.9891
 20
-47.5
 11
77.9734
 21
-47.7493
  0
LINE
  8
0
 10
77.9734
 20
-47.7493
 11
77.9266
 21
-47.9947
  0
LINE
  8
0
 10
77.9266
 20
-47.9947
 11
77.8494
 21
-48.2322
  0
LINE
  8
0
 10
77.8494
 20
-48.2322
 11
77.7431
 21
-48.4583
  0
LINE
  8
0
 10
77.7431
 20
-48.4583
 11
77.6092
 21
-48.6692
  0
LINE
  8
0
 10
77.6092
 20
-48.6692
 11
77.45
 21
-48.8616
  0
LINE
  8
0
 10
77.45
 20
-48.8616
 11
77.2679
 21
-49.0326
  0
LINE
  8
0
 10
77.2679
 20
-49.0326
 11
77.0658
 21
-49.1794
  0
LINE
  8
0
 10
77.0658
 20
-49.1794
 11
76.8469
 21
-49.2998
  0
LINE
  8
0
 10
76.8469
 20
-49.2998
 11
76.6147
 21
-49.3917
  0
LINE
  8
0
 10
76.6147
 20
-49.3917
 11
76.3727
 21
-49.4539
  0
LINE
  8
0
 10
76.3727
 20
-49.4539
 11
76.1249
 21
-49.4852
  0
LINE
  8
0
 10
76.1249
 20
-49.4852
 11
75.8751
 21
-49.4852
  0
LINE
  8
0
 10
-21.0936
 20
-54.2872
 11
-21.2792
 21
-54.2637
  0
LINE
  8
0
 10
-21.2792
 20
-54.2637
 11
-21.4605
 21
-54.2172
  0
LINE
  8
0
 10
-21.4605
 20
-54.2172
 11
-21.6344
 21
-54.1483
  0
LINE
  8
0
 10
-21.6344
 20
-54.1483
 11
-21.7984
 21
-54.0581
  0
LINE
  8
0
 10
-21.7984
 20
-54.0581
 11
-21.9498
 21
-53.9481
  0
LINE
  8
0
 10
-21.9498
 20
-53.9481
 11
-22.0862
 21
-53.82
  0
LINE
  8
0
 10
-22.0862
 20
-53.82
 11
-22.2055
 21
-53.6759
  0
LINE
  8
0
 10
-22.2055
 20
-53.6759
 11
-22.3058
 21
-53.5179
  0
LINE
  8
0
 10
-22.3058
 20
-53.5179
 11
-22.3855
 21
-53.3485
  0
LINE
  8
0
 10
-22.3855
 20
-53.3485
 11
-22.4433
 21
-53.1706
  0
LINE
  8
0
 10
-22.4433
 20
-53.1706
 11
-22.4783
 21
-52.9868
  0
LINE
  8
0
 10
-22.4783
 20
-52.9868
 11
-22.4901
 21
-52.8
  0
LINE
  8
0
 10
-22.4901
 20
-52.8
 11
-22.4783
 21
-52.6132
  0
LINE
  8
0
 10
-22.4783
 20
-52.6132
 11
-22.4433
 21
-52.4294
  0
LINE
  8
0
 10
-22.4433
 20
-52.4294
 11
-22.3855
 21
-52.2514
  0
LINE
  8
0
 10
-22.3855
 20
-52.2514
 11
-22.3058
 21
-52.0821
  0
LINE
  8
0
 10
-22.3058
 20
-52.0821
 11
-22.2055
 21
-51.9241
  0
LINE
  8
0
 10
-22.2055
 20
-51.9241
 11
-22.0862
 21
-51.78
  0
LINE
  8
0
 10
-22.0862
 20
-51.78
 11
-21.9498
 21
-51.6519
  0
LINE
  8
0
 10
-21.9498
 20
-51.6519
 11
-21.7984
 21
-51.5419
  0
LINE
  8
0
 10
-21.7984
 20
-51.5419
 11
-21.6344
 21
-51.4517
  0
LINE
  8
0
 10
-21.6344
 20
-51.4517
 11
-21.4605
 21
-51.3828
  0
LINE
  8
0
 10
-21.4605
 20
-51.3828
 11
-21.2792
 21
-51.3363
  0
LINE
  8
0
 10
-21.2792
 20
-51.3363
 11
-21.0936
 21
-51.3128
  0
LINE
  8
0
 10
-21.0936
 20
-51.3128
 11
-20.9064
 21
-51.3128
  0
LINE
  8
0
 10
-20.9064
 20
-51.3128
 11
-20.7208
 21
-51.3363
  0
LINE
  8
0
 10
-20.7208
 20
-51.3363
 11
-20.5395
 21
-51.3828
  0
LINE
  8
0
 10
-20.5395
 20
-51.3828
 11
-20.3655
 21
-51.4517
  0
LINE
  8
0
 10
-20.3655
 20
-51.4517
 11
-20.2016
 21
-51.5419
  0
LINE
  8
0
 10
-20.2016
 20
-51.5419
 11
-20.0502
 21
-51.6519
  0
LINE
  8
0
 10
-20.0502
 20
-51.6519
 11
-19.9138
 21
-51.78
  0
LINE
  8
0
 10
-19.9138
 20
-51.78
 11
-19.7945
 21
-51.9241
  0
LINE
  8
0
 10
-19.7945
 20
-51.9241
 11
-19.6942
 21
-52.0821
  0
LINE
  8
0
 10
-19.6942
 20
-52.0821
 11
-19.6145
 21
-52.2514
  0
LINE
  8
0
 10
-19.6145
 20
-52.2514
 11
-19.5567
 21
-52.4294
  0
LINE
  8
0
 10
-19.5567
 20
-52.4294
 11
-19.5216
 21
-52.6132
  0
LINE
  8
0
 10
-19.5216
 20
-52.6132
 11
-19.5099
 21
-52.8
  0
LINE
  8
0
 10
-19.5099
 20
-52.8
 11
-19.5216
 21
-52.9868
  0
LINE
  8
0
 10
-19.5216
 20
-52.9868
 11
-19.5567
 21
-53.1706
  0
LINE
  8
0
 10
-19.5567
 20
-53.1706
 11
-19.6145
 21
-53.3485
  0
LINE
  8
0
 10
-19.6145
 20
-53.3485
 11
-19.6942
 21
-53.5179
  0
LINE
  8
0
 10
-19.6942
 20
-53.5179
 11
-19.7945
 21
-53.6759
  0
LINE
  8
0
 10
-19.7945
 20
-53.6759
 11
-19.9138
 21
-53.82
  0
LINE
  8
0
 10
-19.9138
 20
-53.82
 11
-20.0502
 21
-53.9481
  0
LINE
  8
0
 10
-20.0502
 20
-53.9481
 11
-20.2016
 21
-54.0581
  0
LINE
  8
0
 10
-20.2016
 20
-54.0581
 11
-20.3655
 21
-54.1483
  0
LINE
  8
0
 10
-20.3655
 20
-54.1483
 11
-20.5395
 21
-54.2172
  0
LINE
  8
0
 10
-20.5395
 20
-54.2172
 11
-20.7208
 21
-54.2637
  0
LINE
  8
0
 10
-20.7208
 20
-54.2637
 11
-20.9064
 21
-54.2872
  0
LINE
  8
0
 10
-20.9064
 20
-54.2872
 11
-21.0936
 21
-54.2872
  0
LINE
  8
0
 10
20.9064
 20
-54.2872
 11
20.7208
 21
-54.2637
  0
LINE
  8
0
 10
20.7208
 20
-54.2637
 11
20.5395
 21
-54.2172
  0
LINE
  8
0
 10
20.5395
 20
-54.2172
 11
20.3655
 21
-54.1483
  0
LINE
  8
0
 10
20.3655
 20
-54.1483
 11
20.2016
 21
-54.0581
  0
LINE
  8
0
 10
20.2016
 20
-54.0581
 11
20.0502
 21
-53.9481
  0
LINE
  8
0
 10
20.0502
 20
-53.9481
 11
19.9138
 21
-53.82
  0
LINE
  8
0
 10
19.9138
 20
-53.82
 11
19.7945
 21
-53.6759
  0
LINE
  8
0
 10
19.7945
 20
-53.6759
 11
19.6942
 21
-53.5179
  0
LINE
  8
0
 10
19.6942
 20
-53.5179
 11
19.6145
 21
-53.3485
  0
LINE
  8
0
 10
19.6145
 20
-53.3485
 11
19.5567
 21
-53.1706
  0
LINE
  8
0
 10
19.5567
 20
-53.1706
 11
19.5216
 21
-52.9868
  0
LINE
  8
0
 10
19.5216
 20
-52.9868
 11
19.5099
 21
-52.8
  0
LINE
  8
0
 10
19.5099
 20
-52.8
 11
19.5216
 21
-52.6132
  0
LINE
  8
0
 10
19.5216
 20
-52.6132
 11
19.5567
 21
-52.4294
  0
LINE
  8
0
 10
19.5567
 20
-52.4294
 11
19.6145
 21
-52.2514
  0
LINE
  8
0
 10
19.6145
 20
-52.2514
 11
19.6942
 21
-52.0821
  0
LINE
  8
0
 10
19.6942
 20
-52.0821
 11
19.7945
 21
-51.9241
  0
LINE
  8
0
 10
19.7945
 20
-51.9241
 11
19.9138
 21
-51.78
  0
LINE
  8
0
 10
19.9138
 20
-51.78
 11
20.0502
 21
-51.6519
  0
LINE
  8
0
 10
20.0502
 20
-51.6519
 11
20.2016
 21
-51.5419
  0
LINE
  8
0
 10
20.2016
 20
-51.5419
 11
20.3655
 21
-51.4517
  0
LINE
  8
0
 10
20.3655
 20
-51.4517
 11
20.5395
 21
-51.3828
  0
LINE
  8
0
 10
20.5395
 20
-51.3828
 11
20.7208
 21
-51.3363
  0
LINE
  8
0
 10
20.7208
 20
-51.3363
 11
20.9064
 21
-51.3128
  0
LINE
  8
0
 10
20.9064
 20
-51.3128
 11
21.0936
 21
-51.3128
  0
LINE
  8
0
 10
21.0936
 20
-51.3128
 11
21.2792
 21
-51.3363
  0
LINE
  8
0
 10
21.2792
 20
-51.3363
 11
21.4605
 21
-51.3828
  0
LINE
  8
0
 10
21.4605
 20
-51.3828
 11
21.6344
 21
-51.4517
  0
LINE
  8
0
 10
21.6344
 20
-51.4517
 11
21.7984
 21
-51.5419
  0
LINE
  8
0
 10
21.7984
 20
-51.5419
 11
21.9498
 21
-51.6519
  0
LINE
  8
0
 10
21.9498
 20
-51.6519
 11
22.0862
 21
-51.78
  0
LINE
  8
0
 10
22.0862
 20
-51.78
 11
22.2055
 21
-51.9241
  0
LINE
  8
0
 10
22.2055
 20
-51.9241
 11
22.3058
 21
-52.0821
  0
LINE
  8
0
 10
22.3058
 20
-52.0821
 11
22.3855
 21
-52.2514
  0
LINE
  8
0
 10
22.3855
 20
-52.2514
 11
22.4433
 21
-52.4294
  0
LINE
  8
0
 10
22.4433
 20
-52.4294
 11
22.4783
 21
-52.6132
  0
LINE
  8
0
 10
22.4783
 20
-52.6132
 11
22.4901
 21
-52.8
  0
LINE
  8
0
 10
22.4901
 20
-52.8
 11
22.4783
 21
-52.9868
  0
LINE
  8
0
 10
22.4783
 20
-52.9868
 11
22.4433
 21
-53.1706
  0
LINE
  8
0
 10
22.4433
 20
-53.1706
 11
22.3855
 21
-53.3485
  0
LINE
  8
0
 10
22.3855
 20
-53.3485
 11
22.3058
 21
-53.5179
  0
LINE
  8
0
 10
22.3058
 20
-53.5179
 11
22.2055
 21
-53.6759
  0
LINE
  8
0
 10
22.2055
 20
-53.6759
 11
22.0862
 21
-53.82
  0
LINE
  8
0
 10
22.0862
 20
-53.82
 11
21.9498
 21
-53.9481
  0
LINE
  8
0
 10
21.9498
 20
-53.9481
 11
21.7984
 21
-54.0581
  0
LINE
  8
0
 10
21.7984
 20
-54.0581
 11
21.6344
 21
-54.1483
  0
LINE
  8
0
 10
21.6344
 20
-54.1483
 11
21.4605
 21
-54.2172
  0
LINE
  8
0
 10
21.4605
 20
-54.2172
 11
21.2792
 21
-54.2637
  0
LINE
  8
0
 10
21.2792
 20
-54.2637
 11
21.0936
 21
-54.2872
  0
LINE
  8
0
 10
21.0936
 20
-54.2872
 11
20.9064
 21
-54.2872
  0
LINE
  8
0
 10
20.9064
 20
-88.6871
 11
20.7208
 21
-88.6637
  0
LINE
  8
0
 10
20.7208
 20
-88.6637
 11
20.5395
 21
-88.6172
  0
LINE
  8
0
 10
20.5395
 20
-88.6172
 11
20.3655
 21
-88.5483
  0
LINE
  8
0
 10
20.3655
 20
-88.5483
 11
20.2016
 21
-88.4581
  0
LINE
  8
0
 10
20.2016
 20
-88.4581
 11
20.0502
 21
-88.3481
  0
LINE
  8
0
 10
20.0502
 20
-88.3481
 11
19.9138
 21
-88.22
  0
LINE
  8
0
 10
19.9138
 20
-88.22
 11
19.7945
 21
-88.0759
  0
LINE
  8
0
 10
19.7945
 20
-88.0759
 11
19.6942
 21
-87.9179
  0
LINE
  8
0
 10
19.6942
 20
-87.9179
 11
19.6145
 21
-87.7485
  0
LINE
  8
0
 10
19.6145
 20
-87.7485
 11
19.5567
 21
-87.5706
  0
LINE
  8
0
 10
19.5567
 20
-87.5706
 11
19.5216
 21
-87.3867
  0
LINE
  8
0
 10
19.5216
 20
-87.3867
 11
19.5099
 21
-87.2
  0
LINE
  8
0
 10
19.5099
 20
-87.2
 11
19.5216
 21
-87.0132
  0
LINE
  8
0
 10
19.5216
 20
-87.0132
 11
19.5567
 21
-86.8294
  0
LINE
  8
0
 10
19.5567
 20
-86.8294
 11
19.6145
 21
-86.6515
  0
LINE
  8
0
 10
19.6145
 20
-86.6515
 11
19.6942
 21
-86.4821
  0
LINE
  8
0
 10
19.6942
 20
-86.4821
 11
19.7945
 21
-86.3241
  0
LINE
  8
0
 10
19.7945
 20
-86.3241
 11
19.9138
 21
-86.1799
  0
LINE
  8
0
 10
19.9138
 20
-86.1799
 11
20.0502
 21
-86.0518
  0
LINE
  8
0
 10
20.0502
 20
-86.0518
 11
20.2016
 21
-85.9419
  0
LINE
  8
0
 10
20.2016
 20
-85.9419
 11
20.3655
 21
-85.8517
  0
LINE
  8
0
 10
20.3655
 20
-85.8517
 11
20.5395
 21
-85.7828
  0
LINE
  8
0
 10
20.5395
 20
-85.7828
 11
20.7208
 21
-85.7363
  0
LINE
  8
0
 10
20.7208
 20
-85.7363
 11
20.9064
 21
-85.7128
  0
LINE
  8
0
 10
20.9064
 20
-85.7128
 11
21.0936
 21
-85.7128
  0
LINE
  8
0
 10
21.0936
 20
-85.7128
 11
21.2792
 21
-85.7363
  0
LINE
  8
0
 10
21.2792
 20
-85.7363
 11
21.4605
 21
-85.7828
  0
LINE
  8
0
 10
21.4605
 20
-85.7828
 11
21.6344
 21
-85.8517
  0
LINE
  8
0
 10
21.6344
 20
-85.8517
 11
21.7984
 21
-85.9419
  0
LINE
  8
0
 10
21.7984
 20
-85.9419
 11
21.9498
 21
-86.0518
  0
LINE
  8
0
 10
21.9498
 20
-86.0518
 11
22.0862
 21
-86.1799
  0
LINE
  8
0
 10
22.0862
 20
-86.1799
 11
22.2055
 21
-86.3241
  0
LINE
  8
0
 10
22.2055
 20
-86.3241
 11
22.3058
 21
-86.4821
  0
LINE
  8
0
 10
22.3058
 20
-86.4821
 11
22.3855
 21
-86.6515
  0
LINE
  8
0
 10
22.3855
 20
-86.6515
 11
22.4433
 21
-86.8294
  0
LINE
  8
0
 10
22.4433
 20
-86.8294
 11
22.4783
 21
-87.0132
  0
LINE
  8
0
 10
22.4783
 20
-87.0132
 11
22.4901
 21
-87.2
  0
LINE
  8
0
 10
22.4901
 20
-87.2
 11
22.4783
 21
-87.3867
  0
LINE
  8
0
 10
22.4783
 20
-87.3867
 11
22.4433
 21
-87.5706
  0
LINE
  8
0
 10
22.4433
 20
-87.5706
 11
22.3855
 21
-87.7485
  0
LINE
  8
0
 10
22.3855
 20
-87.7485
 11
22.3058
 21
-87.9179
  0
LINE
  8
0
 10
22.3058
 20
-87.9179
 11
22.2055
 21
-88.0759
  0
LINE
  8
0
 10
22.2055
 20
-88.0759
 11
22.0862
 21
-88.22
  0
LINE
  8
0
 10
22.0862
 20
-88.22
 11
21.9498
 21
-88.3481
  0
LINE
  8
0
 10
21.9498
 20
-88.3481
 11
21.7984
 21
-88.4581
  0
LINE
  8
0
 10
21.7984
 20
-88.4581
 11
21.6344
 21
-88.5483
  0
LINE
  8
0
 10
21.6344
 20
-88.5483
 11
21.4605
 21
-88.6172
  0
LINE
  8
0
 10
21.4605
 20
-88.6172
 11
21.2792
 21
-88.6637
  0
LINE
  8
0
 10
21.2792
 20
-88.6637
 11
21.0936
 21
-88.6871
  0
LINE
  8
0
 10
21.0936
 20
-88.6871
 11
20.9064
 21
-88.6871
  0
LINE
  8
0
 10
-21.0936
 20
-88.6871
 11
-21.2792
 21
-88.6637
  0
LINE
  8
0
 10
-21.2792
 20
-88.6637
 11
-21.4605
 21
-88.6172
  0
LINE
  8
0
 10
-21.4605
 20
-88.6172
 11
-21.6344
 21
-88.5483
  0
LINE
  8
0
 10
-21.6344
 20
-88.5483
 11
-21.7984
 21
-88.4581
  0
LINE
  8
0
 10
-21.7984
 20
-88.4581
 11
-21.9498
 21
-88.3481
  0
LINE
  8
0
 10
-21.9498
 20
-88.3481
 11
-22.0862
 21
-88.22
  0
LINE
  8
0
 10
-22.0862
 20
-88.22
 11
-22.2055
 21
-88.0759
  0
LINE
  8
0
 10
-22.2055
 20
-88.0759
 11
-22.3058
 21
-87.9179
  0
LINE
  8
0
 10
-22.3058
 20
-87.9179
 11
-22.3855
 21
-87.7485
  0
LINE
  8
0
 10
-22.3855
 20
-87.7485
 11
-22.4433
 21
-87.5706
  0
LINE
  8
0
 10
-22.4433
 20
-87.5706
 11
-22.4783
 21
-87.3867
  0
LINE
  8
0
 10
-22.4783
 20
-87.3867
 11
-22.4901
 21
-87.2
  0
LINE
  8
0
 10
-22.4901
 20
-87.2
 11
-22.4783
 21
-87.0132
  0
LINE
  8
0
 10
-22.4783
 20
-87.0132
 11
-22.4433
 21
-86.8294
  0
LINE
  8
0
 10
-22.4433
 20
-86.8294
 11
-22.3855
 21
-86.6515
  0
LINE
  8
0
 10
-22.3855
 20
-86.6515
 11
-22.3058
 21
-86.4821
  0
LINE
  8
0
 10
-22.3058
 20
-86.4821
 11
-22.2055
 21
-86.3241
  0
LINE
  8
0
 10
-22.2055
 20
-86.3241
 11
-22.0862
 21
-86.1799
  0
LINE
  8
0
 10
-22.0862
 20
-86.1799
 11
-21.9498
 21
-86.0518
  0
LINE
  8
0
 10
-21.9498
 20
-86.0518
 11
-21.7984
 21
-85.9419
  0
LINE
  8
0
 10
-21.7984
 20
-85.9419
 11
-21.6344
 21
-85.8517
  0
LINE
  8
0
 10
-21.6344
 20
-85.8517
 11
-21.4605
 21
-85.7828
  0
LINE
  8
0
 10
-21.4605
 20
-85.7828
 11
-21.2792
 21
-85.7363
  0
LINE
  8
0
 10
-21.2792
 20
-85.7363
 11
-21.0936
 21
-85.7128
  0
LINE
  8
0
 10
-21.0936
 20
-85.7128
 11
-20.9064
 21
-85.7128
  0
LINE
  8
0
 10
-20.9064
 20
-85.7128
 11
-20.7208
 21
-85.7363
  0
LINE
  8
0
 10
-20.7208
 20
-85.7363
 11
-20.5395
 21
-85.7828
  0
LINE
  8
0
 10
-20.5395
 20
-85.7828
 11
-20.3655
 21
-85.8517
  0
LINE
  8
0
 10
-20.3655
 20
-85.8517
 11
-20.2016
 21
-85.9419
  0
LINE
  8
0
 10
-20.2016
 20
-85.9419
 11
-20.0502
 21
-86.0518
  0
LINE
  8
0
 10
-20.0502
 20
-86.0518
 11
-19.9138
 21
-86.1799
  0
LINE
  8
0
 10
-19.9138
 20
-86.1799
 11
-19.7945
 21
-86.3241
  0
LINE
  8
0
 10
-19.7945
 20
-86.3241
 11
-19.6942
 21
-86.4821
  0
LINE
  8
0
 10
-19.6942
 20
-86.4821
 11
-19.6145
 21
-86.6515
  0
LINE
  8
0
 10
-19.6145
 20
-86.6515
 11
-19.5567
 21
-86.8294
  0
LINE
  8
0
 10
-19.5567
 20
-86.8294
 11
-19.5216
 21
-87.0132
  0
LINE
  8
0
 10
-19.5216
 20
-87.0132
 11
-19.5099
 21
-87.2
  0
LINE
  8
0
 10
-19.5099
 20
-87.2
 11
-19.5216
 21
-87.3867
  0
LINE
  8
0
 10
-19.5216
 20
-87.3867
 11
-19.5567
 21
-87.5706
  0
LINE
  8
0
 10
-19.5567
 20
-87.5706
 11
-19.6145
 21
-87.7485
  0
LINE
  8
0
 10
-19.6145
 20
-87.7485
 11
-19.6942
 21
-87.9179
  0
LINE
  8
0
 10
-19.6942
 20
-87.9179
 11
-19.7945
 21
-88.0759
  0
LINE
  8
0
 10
-19.7945
 20
-88.0759
 11
-19.9138
 21
-88.22
  0
LINE
  8
0
 10
-19.9138
 20
-88.22
 11
-20.0502
 21
-88.3481
  0
LINE
  8
0
 10
-20.0502
 20
-88.3481
 11
-20.2016
 21
-88.4581
  0
LINE
  8
0
 10
-20.2016
 20
-88.4581
 11
-20.3655
 21
-88.5483
  0
LINE
  8
0
 10
-20.3655
 20
-88.5483
 11
-20.5395
 21
-88.6172
  0
LINE
  8
0
 10
-20.5395
 20
-88.6172
 11
-20.7208
 21
-88.6637
  0
LINE
  8
0
 10
-20.7208
 20
-88.6637
 11
-20.9064
 21
-88.6871
  0
LINE
  8
0
 10
-20.9064
 20
-88.6871
 11
-21.0936
 21
-88.6871
  0
LINE
  8
0
 10
75.8751
 20
-94.4852
 11
75.6273
 21
-94.4539
  0
LINE
  8
0
 10
75.6273
 20
-94.4539
 11
75.3853
 21
-94.3917
  0
LINE
  8
0
 10
75.3853
 20
-94.3917
 11
75.1531
 21
-94.2998
  0
LINE
  8
0
 10
75.1531
 20
-94.2998
 11
74.9342
 21
-94.1794
  0
LINE
  8
0
 10
74.9342
 20
-94.1794
 11
74.7321
 21
-94.0326
  0
LINE
  8
0
 10
74.7321
 20
-94.0326
 11
74.55
 21
-93.8616
  0
LINE
  8
0
 10
74.55
 20
-93.8616
 11
74.3908
 21
-93.6692
  0
LINE
  8
0
 10
74.3908
 20
-93.6692
 11
74.2569
 21
-93.4583
  0
LINE
  8
0
 10
74.2569
 20
-93.4583
 11
74.1506
 21
-93.2322
  0
LINE
  8
0
 10
74.1506
 20
-93.2322
 11
74.0734
 21
-92.9947
  0
LINE
  8
0
 10
74.0734
 20
-92.9947
 11
74.0266
 21
-92.7493
  0
LINE
  8
0
 10
74.0266
 20
-92.7493
 11
74.0109
 21
-92.5
  0
LINE
  8
0
 10
74.0109
 20
-92.5
 11
74.0266
 21
-92.2507
  0
LINE
  8
0
 10
74.0266
 20
-92.2507
 11
74.0734
 21
-92.0053
  0
LINE
  8
0
 10
74.0734
 20
-92.0053
 11
74.1506
 21
-91.7678
  0
LINE
  8
0
 10
74.1506
 20
-91.7678
 11
74.2569
 21
-91.5417
  0
LINE
  8
0
 10
74.2569
 20
-91.5417
 11
74.3908
 21
-91.3308
  0
LINE
  8
0
 10
74.3908
 20
-91.3308
 11
74.55
 21
-91.1384
  0
LINE
  8
0
 10
74.55
 20
-91.1384
 11
74.7321
 21
-90.9674
  0
LINE
  8
0
 10
74.7321
 20
-90.9674
 11
74.9342
 21
-90.8205
  0
LINE
  8
0
 10
74.9342
 20
-90.8205
 11
75.1531
 21
-90.7002
  0
LINE
  8
0
 10
75.1531
 20
-90.7002
 11
75.3853
 21
-90.6082
  0
LINE
  8
0
 10
75.3853
 20
-90.6082
 11
75.6273
 21
-90.5461
  0
LINE
  8
0
 10
75.6273
 20
-90.5461
 11
75.8751
 21
-90.5148
  0
LINE
  8
0
 10
75.8751
 20
-90.5148
 11
76.1249
 21
-90.5148
  0
LINE
  8
0
 10
76.1249
 20
-90.5148
 11
76.3727
 21
-90.5461
  0
LINE
  8
0
 10
76.3727
 20
-90.5461
 11
76.6147
 21
-90.6082
  0
LINE
  8
0
 10
76.6147
 20
-90.6082
 11
76.8469
 21
-90.7002
  0
LINE
  8
0
 10
76.8469
 20
-90.7002
 11
77.0658
 21
-90.8205
  0
LINE
  8
0
 10
77.0658
 20
-90.8205
 11
77.2679
 21
-90.9674
  0
LINE
  8
0
 10
77.2679
 20
-90.9674
 11
77.45
 21
-91.1384
  0
LINE
  8
0
 10
77.45
 20
-91.1384
 11
77.6092
 21
-91.3308
  0
LINE
  8
0
 10
77.6092
 20
-91.3308
 11
77.7431
 21
-91.5417
  0
LINE
  8
0
 10
77.7431
 20
-91.5417
 11
77.8494
 21
-91.7678
  0
LINE
  8
0
 10
77.8494
 20
-91.7678
 11
77.9266
 21
-92.0053
  0
LINE
  8
0
 10
77.9266
 20
-92.0053
 11
77.9734
 21
-92.2507
  0
LINE
  8
0
 10
77.9734
 20
-92.2507
 11
77.9891
 21
-92.5
  0
LINE
  8
0
 10
77.9891
 20
-92.5
 11
77.9734
 21
-92.7493
  0
LINE
  8
0
 10
77.9734
 20
-92.7493
 11
77.9266
 21
-92.9947
  0
LINE
  8
0
 10
77.9266
 20
-92.9947
 11
77.8494
 21
-93.2322
  0
LINE
  8
0
 10
77.8494
 20
-93.2322
 11
77.7431
 21
-93.4583
  0
LINE
  8
0
 10
77.7431
 20
-93.4583
 11
77.6092
 21
-93.6692
  0
LINE
  8
0
 10
77.6092
 20
-93.6692
 11
77.45
 21
-93.8616
  0
LINE
  8
0
 10
77.45
 20
-93.8616
 11
77.2679
 21
-94.0326
  0
LINE
  8
0
 10
77.2679
 20
-94.0326
 11
77.0658
 21
-94.1794
  0
LINE
  8
0
 10
77.0658
 20
-94.1794
 11
76.8469
 21
-94.2998
  0
LINE
  8
0
 10
76.8469
 20
-94.2998
 11
76.6147
 21
-94.3917
  0
LINE
  8
0
 10
76.6147
 20
-94.3917
 11
76.3727
 21
-94.4539
  0
LINE
  8
0
 10
76.3727
 20
-94.4539
 11
76.1249
 21
-94.4852
  0
LINE
  8
0
 10
76.1249
 20
-94.4852
 11
75.8751
 21
-94.4852
  0
LINE
  8
0
 10
-76.1249
 20
-94.4852
 11
-76.3727
 21
-94.4539
  0
LINE
  8
0
 10
-76.3727
 20
-94.4539
 11
-76.6147
 21
-94.3917
  0
LINE
  8
0
 10
-76.6147
 20
-94.3917
 11
-76.8469
 21
-94.2998
  0
LINE
  8
0
 10
-76.8469
 20
-94.2998
 11
-77.0658
 21
-94.1794
  0
LINE
  8
0
 10
-77.0658
 20
-94.1794
 11
-77.2679
 21
-94.0326
  0
LINE
  8
0
 10
-77.2679
 20
-94.0326
 11
-77.45
 21
-93.8616
  0
LINE
  8
0
 10
-77.45
 20
-93.8616
 11
-77.6092
 21
-93.6692
  0
LINE
  8
0
 10
-77.6092
 20
-93.6692
 11
-77.7431
 21
-93.4583
  0
LINE
  8
0
 10
-77.7431
 20
-93.4583
 11
-77.8494
 21
-93.2322
  0
LINE
  8
0
 10
-77.8494
 20
-93.2322
 11
-77.9266
 21
-92.9947
  0
LINE
  8
0
 10
-77.9266
 20
-92.9947
 11
-77.9734
 21
-92.7493
  0
LINE
  8
0
 10
-77.9734
 20
-92.7493
 11
-77.9891
 21
-92.5
  0
LINE
  8
0
 10
-77.9891
 20
-92.5
 11
-77.9734
 21
-92.2507
  0
LINE
  8
0
 10
-77.9734
 20
-92.2507
 11
-77.9266
 21
-92.0053
  0
LINE
  8
0
 10
-77.9266
 20
-92.0053
 11
-77.8494
 21
-91.7678
  0
LINE
  8
0
 10
-77.8494
 20
-91.7678
 11
-77.7431
 21
-91.5417
  0
LINE
  8
0
 10
-77.7431
 20
-91.5417
 11
-77.6092
 21
-91.3308
  0
LINE
  8
0
 10
-77.6092
 20
-91.3308
 11
-77.45
 21
-91.1384
  0
LINE
  8
0
 10
-77.45
 20
-91.1384
 11
-77.2679
 21
-90.9674
  0
LINE
  8
0
 10
-77.2679
 20
-90.9674
 11
-77.0658
 21
-90.8205
  0
LINE
  8
0
 10
-77.0658
 20
-90.8205
 11
-76.8469
 21
-90.7002
  0
LINE
  8
0
 10
-76.8469
 20
-90.7002
 11
-76.6147
 21
-90.6082
  0
LINE
  8
0
 10
-76.6147
 20
-90.6082
 11
-76.3727
 21
-90.5461
  0
LINE
  8
0
 10
-76.3727
 20
-90.5461
 11
-76.1249
 21
-90.5148
  0
LINE
  8
0
 10
-76.1249
 20
-90.5148
 11
-75.8751
 21
-90.5148
  0
LINE
  8
0
 10
-75.8751
 20
-90.5148
 11
-75.6273
 21
-90.5461
  0
LINE
  8
0
 10
-75.6273
 20
-90.5461
 11
-75.3853
 21
-90.6082
  0
LINE
  8
0
 10
-75.3853
 20
-90.6082
 11
-75.1531
 21
-90.7002
  0
LINE
  8
0
 10
-75.1531
 20
-90.7002
 11
-74.9342
 21
-90.8205
  0
LINE
  8
0
 10
-74.9342
 20
-90.8205
 11
-74.7321
 21
-90.9674
  0
LINE
  8
0
 10
-74.7321
 20
-90.9674
 11
-74.55
 21
-91.1384
  0
LINE
  8
0
 10
-74.55
 20
-91.1384
 11
-74.3908
 21
-91.3308
  0
LINE
  8
0
 10
-74.3908
 20
-91.3308
 11
-74.2569
 21
-91.5417
  0
LINE
  8
0
 10
-74.2569
 20
-91.5417
 11
-74.1506
 21
-91.7678
  0
LINE
  8
0
 10
-74.1506
 20
-91.7678
 11
-74.0734
 21
-92.0053
  0
LINE
  8
0
 10
-74.0734
 20
-92.0053
 11
-74.0266
 21
-92.2507
  0
LINE
  8
0
 10
-74.0266
 20
-92.2507
 11
-74.0109
 21
-92.5
  0
LINE
  8
0
 10
-74.0109
 20
-92.5
 11
-74.0266
 21
-92.7493
  0
LINE
  8
0
 10
-74.0266
 20
-92.7493
 11
-74.0734
 21
-92.9947
  0
LINE
  8
0
 10
-74.0734
 20
-92.9947
 11
-74.1506
 21
-93.2322
  0
LINE
  8
0
 10
-74.1506
 20
-93.2322
 11
-74.2569
 21
-93.4583
  0
LINE
  8
0
 10
-74.2569
 20
-93.4583
 11
-74.3908
 21
-93.6692
  0
LINE
  8
0
 10
-74.3908
 20
-93.6692
 11
-74.55
 21
-93.8616
  0
LINE
  8
0
 10
-74.55
 20
-93.8616
 11
-74.7321
 21
-94.0326
  0
LINE
  8
0
 10
-74.7321
 20
-94.0326
 11
-74.9342
 21
-94.1794
  0
LINE
  8
0
 10
-74.9342
 20
-94.1794
 11
-75.1531
 21
-94.2998
  0
LINE
  8
0
 10
-75.1531
 20
-94.2998
 11
-75.3853
 21
-94.3917
  0
LINE
  8
0
 10
-75.3853
 20
-94.3917
 11
-75.6273
 21
-94.4539
  0
LINE
  8
0
 10
-75.6273
 20
-94.4539
 11
-75.8751
 21
-94.4852
  0
LINE
  8
0
 10
-75.8751
 20
-94.4852
 11
-76.1249
 21
-94.4852
  0
LINE
  8
0
 10
-20
 20
-125
 11
-20
 21
-115
  0
LINE
  8
0
 10
-20
 20
-115
 11
-10
 21
-115
  0
LINE
  8
0
 10
-10
 20
-115
 11
-10
 21
-125
  0
LINE
  8
0
 10
-10
 20
-125
 11
-20
 21
-125
  0
LINE
  8
0
 10
10
 20
-125
 11
10
 21
-115
  0
LINE
  8
0
 10
10
 20
-115
 11
20
 21
-115
  0
LINE
  8
0
 10
20
 20
-115
 11
20
 21
-125
  0
LINE
  8
0
 10
20
 20
-125
 11
10
 21
-125
  0
LINE
  8
0
 10
-0.0935516
 20
-121.487
 11
-0.279205
 21
-121.464
  0
LINE
  8
0
 10
-0.279205
 20
-121.464
 11
-0.460464
 21
-121.417
  0
LINE
  8
0
 10
-0.460464
 20
-121.417
 11
-0.634445
 21
-121.348
  0
LINE
  8
0
 10
-0.634445
 20
-121.348
 11
-0.798431
 21
-121.258
  0
LINE
  8
0
 10
-0.798431
 20
-121.258
 11
-0.949814
 21
-121.148
  0
LINE
  8
0
 10
-0.949814
 20
-121.148
 11
-1.08623
 21
-121.02
  0
LINE
  8
0
 10
-1.08623
 20
-121.02
 11
-1.20551
 21
-120.876
  0
LINE
  8
0
 10
-1.20551
 20
-120.876
 11
-1.30577
 21
-120.718
  0
LINE
  8
0
 10
-1.30577
 20
-120.718
 11
-1.38545
 21
-120.549
  0
LINE
  8
0
 10
-1.38545
 20
-120.549
 11
-1.44328
 21
-120.371
  0
LINE
  8
0
 10
-1.44328
 20
-120.371
 11
-1.47835
 21
-120.187
  0
LINE
  8
0
 10
-1.47835
 20
-120.187
 11
-1.4901
 21
-120
  0
LINE
  8
0
 10
-1.4901
 20
-120
 11
-1.47835
 21
-119.813
  0
LINE
  8
0
 10
-1.47835
 20
-119.813
 11
-1.44328
 21
-119.629
  0
LINE
  8
0
 10
-1.44328
 20
-119.629
 11
-1.38545
 21
-119.451
  0
LINE
  8
0
 10
-1.38545
 20
-119.451
 11
-1.30577
 21
-119.282
  0
LINE
  8
0
 10
-1.30577
 20
-119.282
 11
-1.20551
 21
-119.124
  0
LINE
  8
0
 10
-1.20551
 20
-119.124
 11
-1.08623
 21
-118.98
  0
LINE
  8
0
 10
-1.08623
 20
-118.98
 11
-0.949814
 21
-118.852
  0
LINE
  8
0
 10
-0.949814
 20
-118.852
 11
-0.798431
 21
-118.742
  0
LINE
  8
0
 10
-0.798431
 20
-118.742
 11
-0.634445
 21
-118.652
  0
LINE
  8
0
 10
-0.634445
 20
-118.652
 11
-0.460464
 21
-118.583
  0
LINE
  8
0
 10
-0.460464
 20
-118.583
 11
-0.279205
 21
-118.536
  0
LINE
  8
0
 10
-0.279205
 20
-118.536
 11
-0.0935516
 21
-118.513
  0
LINE
  8
0
 10
-0.0935516
 20
-118.513
 11
0.0935516
 21
-118.513
  0
LINE
  8
0
 10
0.0935516
 20
-118.513
 11
0.279205
 21
-118.536
  0
LINE
  8
0
 10
0.279205
 20
-118.536
 11
0.460464
 21
-118.583
  0
LINE
  8
0
 10
0.460464
 20
-118.583
 11
0.634445
 21
-118.652
  0
LINE
  8
0
 10
0.634445
 20
-118.652
 11
0.798431
 21
-118.742
  0
LINE
  8
0
 10
0.798431
 20
-118.742
 11
0.949814
 21
-118.852
  0
LINE
  8
0
 10
0.949814
 20
-118.852
 11
1.08623
 21
-118.98
  0
LINE
  8
0
 10
1.08623
 20
-118.98
 11
1.20551
 21
-119.124
  0
LINE
  8
0
 10
1.20551
 20
-119.124
 11
1.30577
 21
-119.282
  0
LINE
  8
0
 10
1.30577
 20
-119.282
 11
1.38545
 21
-119.451
  0
LINE
  8
0
 10
1.38545
 20
-119.451
 11
1.44328
 21
-119.629
  0
LINE
  8
0
 10
1.44328
 20
-119.629
 11
1.47835
 21
-119.813
  0
LINE
  8
0
 10
1.47835
 20
-119.813
 11
1.4901
 21
-120
  0
LINE
  8
0
 10
1.4901
 20
-120
 11
1.47835
 21
-120.187
  0
LINE
  8
0
 10
1.47835
 20
-120.187
 11
1.44328
 21
-120.371
  0
LINE
  8
0
 10
1.44328
 20
-120.371
 11
1.38545
 21
-120.549
  0
LINE
  8
0
 10
1.38545
 20
-120.549
 11
1.30577
 21
-120.718
  0
LINE
  8
0
 10
1.30577
 20
-120.718
 11
1.20551
 21
-120.876
  0
LINE
  8
0
 10
1.20551
 20
-120.876
 11
1.08623
 21
-121.02
  0
LINE
  8
0
 10
1.08623
 20
-121.02
 11
0.949814
 21
-121.148
  0
LINE
  8
0
 10
0.949814
 20
-121.148
 11
0.798431
 21
-121.258
  0
LINE
  8
0
 10
0.798431
 20
-121.258
 11
0.634445
 21
-121.348
  0
LINE
  8
0
 10
0.634445
 20
-121.348
 11
0.460464
 21
-121.417
  0
LINE
  8
0
 10
0.460464
 20
-121.417
 11
0.279205
 21
-121.464
  0
LINE
  8
0
 10
0.279205
 20
-121.464
 11
0.0935516
 21
-121.487
  0
LINE
  8
0
 10
0.0935516
 20
-121.487
 11
-0.0935516
 21
-121.487
  0
ENDSEC
  0
SECTION
  2
OBJECTS
  0
DICTIONARY
  0
ENDSEC
  0
EOF
