<?xml version="1.0" standalone="no"?>
<!DOCTYPE svg PUBLIC "-//W3C//DTD SVG 1.1//EN" "http://www.w3.org/Graphics/SVG/1.1/DTD/svg11.dtd">
<svg width="300" height="300" viewBox="-150 -150 300 300" xmlns="http://www.w3.org/2000/svg" version="1.1">
<title>OpenSCAD Model</title>
<path d="
M 28.1072,147.343 L 46.3525,142.658 L 63.8669,135.724 L 80.374,126.649 L 95.6136,115.577 L 101,110.519
 L 101,10 L 149.371,10 L 150,-0 L 148.817,-18.8 L 145.287,-37.3035 L 139.466,-55.2187
 L 131.446,-72.263 L 121.353,-88.1678 L 109.345,-102.682 L 95.6136,-115.577 L 80.374,-126.649 L 63.8669,-135.724
 L 46.3525,-142.658 L 28.1072,-147.343 L 9.41856,-149.704 L -9.41856,-149.704 L -28.1072,-147.343 L -46.3525,-142.658
 L -63.8669,-135.724 L -80.374,-126.649 L -95.6136,-115.577 L -109.345,-102.682 L -121.353,-88.1678 L -131.446,-72.263
 L -139.466,-55.2187 L -145.287,-37.3035 L -148.817,-18.8 L -150,-0 L -149.371,10 L -101,10
 L -101,110.519 L -95.6136,115.577 L -80.374,126.649 L -63.8669,135.724 L -46.3525,142.658 L -28.1072,147.343
 L -9.41856,149.704 L 9.41856,149.704 z
M -2.19766,-35.0691 L -6.55833,-35.6199 L -10.8156,-36.713 L -14.9023,-38.3311 L -18.7539,-40.4485 L -22.3098,-43.032
 L -25.5139,-46.0408 L -28.3156,-49.4275 L -30.6707,-53.1386 L -32.5422,-57.1156 L -33.9004,-61.2959 L -34.724,-65.6133
 L -35,-70 L -34.724,-74.3867 L -33.9004,-78.7041 L -32.5422,-82.8844 L -30.6707,-86.8614 L -28.3156,-90.5725
 L -25.5139,-93.9592 L -22.3098,-96.968 L -18.7539,-99.5515 L -14.9023,-101.669 L -10.8156,-103.287 L -6.55833,-104.38
 L -2.19766,-104.931 L 2.19766,-104.931 L 6.55833,-104.38 L 10.8156,-103.287 L 14.9023,-101.669 L 18.7539,-99.5515
 L 22.3098,-96.968 L 25.5139,-93.9592 L 28.3156,-90.5725 L 30.6707,-86.8614 L 32.5422,-82.8844 L 33.9004,-78.7041
 L 34.724,-74.3867 L 35,-70 L 34.724,-65.6133 L 33.9004,-61.2959 L 32.5422,-57.1156 L 30.6707,-53.1386
 L 28.3156,-49.4275 L 25.5139,-46.0408 L 22.3098,-43.032 L 18.7539,-40.4485 L 14.9023,-38.3311 L 10.8156,-36.713
 L 6.55833,-35.6199 L 2.19766,-35.0691 z
M -34.8895,-88.5308 L -35.0717,-88.5735 L -35.2471,-88.6387 L -35.4129,-88.7254 L -35.5666,-88.8322 L -35.7056,-88.9574
 L -35.8279,-89.0991 L -35.9315,-89.2549 L -36.0147,-89.4226 L -36.0762,-89.5993 L -36.1151,-89.7823 L -36.1308,-89.9688
 L -36.1229,-90.1557 L -36.0917,-90.3403 L -36.0377,-90.5194 L -35.9615,-90.6904 L -35.8646,-90.8504 L -35.7484,-90.9971
 L -35.6147,-91.128 L -35.4656,-91.2411 L -35.3036,-91.3347 L -35.1311,-91.4072 L -34.9508,-91.4575 L -34.7657,-91.4849
 L -34.5786,-91.4888 L -34.3925,-91.4692 L -34.2103,-91.4265 L -34.0349,-91.3613 L -33.8691,-91.2746 L -33.7154,-91.1678
 L -33.5764,-91.0426 L -33.4541,-90.9009 L -33.3505,-90.745 L -33.2673,-90.5774 L -33.2058,-90.4007 L -33.1669,-90.2177
 L -33.1512,-90.0312 L -33.1591,-89.8442 L -33.1903,-89.6597 L -33.2444,-89.4806 L -33.3205,-89.3096 L -33.4174,-89.1496
 L -33.5336,-89.0029 L -33.6673,-88.872 L -33.8164,-88.7589 L -33.9785,-88.6653 L -34.151,-88.5928 L -34.3312,-88.5425
 L -34.5163,-88.5151 L -34.7034,-88.5112 z
M 34.3925,-88.5308 L 34.2103,-88.5735 L 34.0349,-88.6387 L 33.8691,-88.7254 L 33.7154,-88.8322 L 33.5764,-88.9574
 L 33.4541,-89.0991 L 33.3505,-89.2549 L 33.2673,-89.4226 L 33.2058,-89.5993 L 33.1669,-89.7823 L 33.1512,-89.9688
 L 33.1591,-90.1557 L 33.1903,-90.3403 L 33.2444,-90.5194 L 33.3205,-90.6904 L 33.4174,-90.8504 L 33.5336,-90.9971
 L 33.6673,-91.128 L 33.8164,-91.2411 L 33.9785,-91.3347 L 34.151,-91.4072 L 34.3312,-91.4575 L 34.5163,-91.4849
 L 34.7034,-91.4888 L 34.8895,-91.4692 L 35.0717,-91.4265 L 35.2471,-91.3613 L 35.4129,-91.2746 L 35.5666,-91.1678
 L 35.7056,-91.0426 L 35.8279,-90.9009 L 35.9315,-90.745 L 36.0147,-90.5774 L 36.0762,-90.4007 L 36.1151,-90.2177
 L 36.1308,-90.0312 L 36.1229,-89.8442 L 36.0917,-89.6597 L 36.0377,-89.4806 L 35.9615,-89.3096 L 35.8646,-89.1496
 L 35.7484,-89.0029 L 35.6147,-88.872 L 35.4656,-88.7589 L 35.3036,-88.6653 L 35.1311,-88.5928 L 34.9508,-88.5425
 L 34.7657,-88.5151 L 34.5786,-88.5112 z
M -90.9327,-66.6421 L -83.8616,-73.7132 L -76.7905,-66.6421 L -83.8616,-59.5711 z
M 76.7905,-66.6421 L 83.8616,-73.7132 L 90.9327,-66.6421 L 83.8616,-59.5711 z
M -94.7013,-54.5638 L -94.8839,-54.6046 L -95.06,-54.668 L -95.2267,-54.7529 L -95.3815,-54.8581 L -95.5219,-54.9819
 L -95.6456,-55.1222 L -95.7508,-55.277 L -95.8357,-55.4437 L -95.8991,-55.6198 L -95.94,-55.8024 L -95.9576,-55.9887
 L -95.9517,-56.1758 L -95.9224,-56.3606 L -95.8702,-56.5403 L -95.7959,-56.712 L -95.7006,-56.8731 L -95.5859,-57.021
 L -95.4536,-57.1533 L -95.3058,-57.268 L -95.1447,-57.3632 L -94.9729,-57.4375 L -94.7933,-57.4897 L -94.6084,-57.519
 L -94.4214,-57.5249 L -94.2351,-57.5073 L -94.0525,-57.4665 L -93.8764,-57.4031 L -93.7097,-57.3181 L -93.5549,-57.2129
 L -93.4145,-57.0892 L -93.2908,-56.9488 L -93.1856,-56.7941 L -93.1006,-56.6273 L -93.0373,-56.4512 L -92.9964,-56.2686
 L -92.9788,-56.0823 L -92.9847,-55.8953 L -93.014,-55.7105 L -93.0662,-55.5308 L -93.1405,-55.359 L -93.2358,-55.198
 L -93.3505,-55.0501 L -93.4828,-54.9178 L -93.6306,-54.8031 L -93.7917,-54.7078 L -93.9634,-54.6335 L -94.1431,-54.5813
 L -94.328,-54.552 L -94.515,-54.5462 z
M 94.328,-54.552 L 94.1431,-54.5813 L 93.9634,-54.6335 L 93.7917,-54.7078 L 93.6306,-54.8031 L 93.4828,-54.9178
 L 93.3505,-55.0501 L 93.2358,-55.198 L 93.1405,-55.359 L 93.0662,-55.5308 L 93.014,-55.7105 L 92.9847,-55.8953
 L 92.9788,-56.0823 L 92.9964,-56.2686 L 93.0373,-56.4512 L 93.1006,-56.6273 L 93.1856,-56.7941 L 93.2908,-56.9488
 L 93.4145,-57.0892 L 93.5549,-57.2129 L 93.7097,-57.3181 L 93.8764,-57.4031 L 94.0525,-57.4665 L 94.2351,-57.5073
 L 94.4214,-57.5249 L 94.6084,-57.519 L 94.7933,-57.4897 L 94.9729,-57.4375 L 95.1447,-57.3632 L 95.3058,-57.268
 L 95.4536,-57.1533 L 95.5859,-57.021 L 95.7006,-56.8731 L 95.7959,-56.712 L 95.8702,-56.5403 L 95.9224,-56.3606
 L 95.9517,-56.1758 L 95.9576,-55.9887 L 95.94,-55.8024 L 95.8991,-55.6198 L 95.8357,-55.4437 L 95.7508,-55.277
 L 95.6456,-55.1222 L 95.5219,-54.9819 L 95.3815,-54.8581 L 95.2267,-54.7529 L 95.06,-54.668 L 94.8839,-54.6046
 L 94.7013,-54.5638 L 94.515,-54.5462 z
M 98.0037,-45.4289 L 105.075,-52.5 L 112.146,-45.4289 L 105.075,-38.3579 z
M -112.146,-45.4289 L -105.075,-52.5 L -98.0037,-45.4289 L -105.075,-38.3579 z
M -0.248489,-28.5308 L -0.430679,-28.5735 L -0.606064,-28.6387 L -0.771912,-28.7254 L -0.925568,-28.8322 L -1.06462,-28.9574
 L -1.1869,-29.0991 L -1.29045,-29.2549 L -1.37366,-29.4226 L -1.4352,-29.5993 L -1.47411,-29.7823 L -1.48976,-29.9688
 L -1.48193,-30.1557 L -1.45073,-30.3403 L -1.39664,-30.5194 L -1.32053,-30.6904 L -1.22359,-30.8504 L -1.10735,-30.9971
 L -0.973648,-31.128 L -0.8246,-31.2411 L -0.662537,-31.3347 L -0.490036,-31.4072 L -0.309799,-31.4575 L -0.12468,-31.4849
 L 0.0623932,-31.4888 L 0.248489,-31.4692 L 0.430679,-31.4265 L 0.606064,-31.3613 L 0.771912,-31.2746 L 0.925568,-31.1678
 L 1.06462,-31.0426 L 1.1869,-30.9009 L 1.29045,-30.745 L 1.37366,-30.5774 L 1.4352,-30.4007 L 1.47411,-30.2177
 L 1.48976,-30.0312 L 1.48193,-29.8442 L 1.45073,-29.6597 L 1.39664,-29.4806 L 1.32053,-29.3096 L 1.22359,-29.1496
 L 1.10735,-29.0029 L 0.973648,-28.872 L 0.8246,-28.7589 L 0.662537,-28.6653 L 0.490036,-28.5928 L 0.309799,-28.5424
 L 0.12468,-28.5151 L -0.0623932,-28.5112 z
M -76.1249,49.4852 L -76.3727,49.4539 L -76.6147,49.3917 L -76.8469,49.2998 L -77.0658,49.1794 L -77.2679,49.0326
 L -77.45,48.8616 L -77.6092,48.6692 L -77.7431,48.4583 L -77.8494,48.2322 L -77.9266,47.9947 L -77.9734,47.7493
 L -77.9891,47.5 L -77.9734,47.2507 L -77.9266,47.0053 L -77.8494,46.7678 L -77.7431,46.5417 L -77.6092,46.3308
 L -77.45,46.1384 L -77.2679,45.9674 L -77.0658,45.8205 L -76.8469,45.7002 L -76.6147,45.6082 L -76.3727,45.5461
 L -76.1249,45.5148 L -75.8751,45.5148 L -75.6273,45.5461 L -75.3853,45.6082 L -75.1531,45.7002 L -74.9342,45.8205
 L -74.7321,45.9674 L -74.55,46.1384 L -74.3908,46.3308 L -74.2569,46.5417 L -74.1506,46.7678 L -74.0734,47.0053
 L -74.0266,47.2507 L -74.0109,47.5 L -74.0266,47.7493 L -74.0734,47.9947 L -74.1506,48.2322 L -74.2569,48.4583
 L -74.3908,48.6692 L -74.55,48.8616 L -74.7321,49.0326 L -74.9342,49.1794 L -75.1531,49.2998 L -75.3853,49.3917
 L -75.6273,49.4539 L -75.8751,49.4852 z
M 75.8751,49.4852 L 75.6273,49.4539 L 75.3853,49.3917 L 75.1531,49.2998 L 74.9342,49.1794 L 74.7321,49.0326
 L 74.55,48.8616 L 74.3908,48.6692 L 74.2569,48.4583 L 74.1506,48.2322 L 74.0734,47.9947 L 74.0266,47.7493
 L 74.0109,47.5 L 74.0266,47.2507 L 74.0734,47.0053 L 74.1506,46.7678 L 74.2569,46.5417 L 74.3908,46.3308
 L 74.55,46.1384 L 74.7321,45.9674 L 74.9342,45.8205 L 75.1531,45.7002 L 75.3853,45.6082 L 75.6273,45.5461
 L 75.8751,45.5148 L 76.1249,45.5148 L 76.3727,45.5461 L 76.6147,45.6082 L 76.8469,45.7002 L 77.0658,45.8205
 L 77.2679,45.9674 L 77.45,46.1384 L 77.6092,46.3308 L 77.7431,46.5417 L 77.8494,46.7678 L 77.9266,47.0053
 L 77.9734,47.2507 L 77.9891,47.5 L 77.9734,47.7493 L 77.9266,47.9947 L 77.8494,48.2322 L 77.7431,48.4583
 L 77.6092,48.6692 L 77.45,48.8616 L 77.2679,49.0326 L 77.0658,49.1794 L 76.8469,49.2998 L 76.6147,49.3917
 L 76.3727,49.4539 L 76.1249,49.4852 z
M -21.0936,54.2872 L -21.2792,54.2637 L -21.4605,54.2172 L -21.6344,54.1483 L -21.7984,54.0581 L -21.9498,53.9481
 L -22.0862,53.82 L -22.2055,53.6759 L -22.3058,53.5179 L -22.3855,53.3485 L -22.4433,53.1706 L -22.4783,52.9868
 L -22.4901,52.8 L -22.4783,52.6132 L -22.4433,52.4294 L -22.3855,52.2514 L -22.3058,52.0821 L -22.2055,51.9241
 L -22.0862,51.78 L -21.9498,51.6519 L -21.7984,51.5419 L -21.6344,51.4517 L -21.4605,51.3828 L -21.2792,51.3363
 L -21.0936,51.3128 L -20.9064,51.3128 L -20.7208,51.3363 L -20.5395,51.3828 L -20.3655,51.4517 L -20.2016,51.5419
 L -20.0502,51.6519 L -19.9138,51.78 L -19.7945,51.9241 L -19.6942,52.0821 L -19.6145,52.2514 L -19.5567,52.4294
 L -19.5216,52.6132 L -19.5099,52.8 L -19.5216,52.9868 L -19.5567,53.1706 L -19.6145,53.3485 L -19.6942,53.5179
 L -19.7945,53.6759 L -19.9138,53.82 L -20.0502,53.9481 L -20.2016,54.0581 L -20.3655,54.1483 L -20.5395,54.2172
 L -20.7208,54.2637 L -20.9064,54.2872 z
M 20.9064,54.2872 L 20.7208,54.2637 L 20.5395,54.2172 L 20.3655,54.1483 L 20.2016,54.0581 L 20.0502,53.9481
 L 19.9138,53.82 L 19.7945,53.6759 L 19.6942,53.5179 L 19.6145,53.3485 L 19.5567,53.1706 L 19.5216,52.9868
 L 19.5099,52.8 L 19.5216,52.6132 L 19.5567,52.4294 L 19.6145,52.2514 L 19.6942,52.0821 L 19.7945,51.9241
 L 19.9138,51.78 L 20.0502,51.6519 L 20.2016,51.5419 L 20.3655,51.4517 L 20.5395,51.3828 L 20.7208,51.3363
 L 20.9064,51.3128 L 21.0936,51.3128 L 21.2792,51.3363 L 21.4605,51.3828 L 21.6344,51.4517 L 21.7984,51.5419
 L 21.9498,51.6519 L 22.0862,51.78 L 22.2055,51.9241 L 22.3058,52.0821 L 22.3855,52.2514 L 22.4433,52.4294
 L 22.4783,52.6132 L 22.4901,52.8 L 22.4783,52.9868 L 22.4433,53.1706 L 22.3855,53.3485 L 22.3058,53.5179
 L 22.2055,53.6759 L 22.0862,53.82 L 21.9498,53.9481 L 21.7984,54.0581 L 21.6344,54.1483 L 21.4605,54.2172
 L 21.2792,54.2637 L 21.0936,54.2872 z
M 20.9064,88.6871 L 20.7208,88.6637 L 20.5395,88.6172 L 20.3655,88.5483 L 20.2016,88.4581 L 20.0502,88.3481
 L 19.9138,88.22 L 19.7945,88.0759 L 19.6942,87.9179 L 19.6145,87.7485 L 19.5567,87.5706 L 19.5216,87.3867
 L 19.5099,87.2 L 19.5216,87.0132 L 19.5567,86.8294 L 19.6145,86.6515 L 19.6942,86.4821 L 19.7945,86.3241
 L 19.9138,86.1799 L 20.0502,86.0518 L 20.2016,85.9419 L 20.3655,85.8517 L 20.5395,85.7828 L 20.7208,85.7363
 L 20.9064,85.7128 L 21.0936,85.7128 L 21.2792,85.7363 L 21.4605,85.7828 L 21.6344,85.8517 L 21.7984,85.9419
 L 21.9498,86.0518 L 22.0862,86.1799 L 22.2055,86.3241 L 22.3058,86.4821 L 22.3855,86.6515 L 22.4433,86.8294
 L 22.4783,87.0132 L 22.4901,87.2 L 22.4783,87.3867 L 22.4433,87.5706 L 22.3855,87.7485 L 22.3058,87.9179
 L 22.2055,88.0759 L 22.0862,88.22 L 21.9498,88.3481 L 21.7984,88.4581 L 21.6344,88.5483 L 21.4605,88.6172
 L 21.2792,88.6637 L 21.0936,88.6871 z
M -21.0936,88.6871 L -21.2792,88.6637 L -21.4605,88.6172 L -21.6344,88.5483 L -21.7984,88.4581 L -21.9498,88.3481
 L -22.0862,88.22 L -22.2055,88.0759 L -22.3058,87.9179 L -22.3855,87.7485 L -22.4433,87.5706 L -22.4783,87.3867
 L -22.4901,87.2 L -22.4783,87.0132 L -22.4433,86.8294 L -22.3855,86.6515 L -22.3058,86.4821 L -22.2055,86.3241
 L -22.0862,86.1799 L -21.9498,86.0518 L -21.7984,85.9419 L -21.6344,85.8517 L -21.4605,85.7828 L -21.2792,85.7363
 L -21.0936,85.7128 L -20.9064,85.7128 L -20.7208,85.7363 L -20.5395,85.7828 L -20.3655,85.8517 L -20.2016,85.9419
 L -20.0502,86.0518 L -19.9138,86.1799 L -19.7945,86.3241 L -19.6942,86.4821 L -19.6145,86.6515 L -19.5567,86.8294
 L -19.5216,87.0132 L -19.5099,87.2 L -19.5216,87.3867 L -19.5567,87.5706 L -19.6145,87.7485 L -19.6942,87.9179
 L -19.7945,88.0759 L -19.9138,88.22 L -20.0502,88.3481 L -20.2016,88.4581 L -20.3655,88.5483 L -20.5395,88.6172
 L -20.7208,88.6637 L -20.9064,88.6871 z
M 75.8751,94.4852 L 75.6273,94.4539 L 75.3853,94.3917 L 75.1531,94.2998 L 74.9342,94.1794 L 74.7321,94.0326
 L 74.55,93.8616 L 74.3908,93.6692 L 74.2569,93.4583 L 74.1506,93.2322 L 74.0734,92.9947 L 74.0266,92.7493
 L 74.0109,92.5 L 74.0266,92.2507 L 74.0734,92.0053 L 74.1506,91.7678 L 74.2569,91.5417 L 74.3908,91.3308
 L 74.55,91.1384 L 74.7321,90.9674 L 74.9342,90.8205 L 75.1531,90.7002 L 75.3853,90.6082 L 75.6273,90.5461
 L 75.8751,90.5148 L 76.1249,90.5148 L 76.3727,90.5461 L 76.6147,90.6082 L 76.8469,90.7002 L 77.0658,90.8205
 L 77.2679,90.9674 L 77.45,91.1384 L 77.6092,91.3308 L 77.7431,91.5417 L 77.8494,91.7678 L 77.9266,92.0053
 L 77.9734,92.2507 L 77.9891,92.5 L 77.9734,92.7493 L 77.9266,92.9947 L 77.8494,93.2322 L 77.7431,93.4583
 L 77.6092,93.6692 L 77.45,93.8616 L 77.2679,94.0326 L 77.0658,94.1794 L 76.8469,94.2998 L 76.6147,94.3917
 L 76.3727,94.4539 L 76.1249,94.4852 z
M -76.1249,94.4852 L -76.3727,94.4539 L -76.6147,94.3917 L -76.8469,94.2998 L -77.0658,94.1794 L -77.2679,94.0326
 L -77.45,93.8616 L -77.6092,93.6692 L -77.7431,93.4583 L -77.8494,93.2322 L -77.9266,92.9947 L -77.9734,92.7493
 L -77.9891,92.5 L -77.9734,92.2507 L -77.9266,92.0053 L -77.8494,91.7678 L -77.7431,91.5417 L -77.6092,91.3308
 L -77.45,91.1384 L -77.2679,90.9674 L -77.0658,90.8205 L -76.8469,90.7002 L -76.6147,90.6082 L -76.3727,90.5461
 L -76.1249,90.5148 L -75.8751,90.5148 L -75.6273,90.5461 L -75.3853,90.6082 L -75.1531,90.7002 L -74.9342,90.8205
 L -74.7321,90.9674 L -74.55,91.1384 L -74.3908,91.3308 L -74.2569,91.5417 L -74.1506,91.7678 L -74.0734,92.0053
 L -74.0266,92.2507 L -74.0109,92.5 L -74.0266,92.7493 L -74.0734,92.9947 L -74.1506,93.2322 L -74.2569,93.4583
 L -74.3908,93.6692 L -74.55,93.8616 L -74.7321,94.0326 L -74.9342,94.1794 L -75.1531,94.2998 L -75.3853,94.3917
 L -75.6273,94.4539 L -75.8751,94.4852 z
M -20,125 L -20,115 L -10,115 L -10,125 z
M 10,125 L 10,115 L 20,115 L 20,125 z
M -0.0935516,121.487 L -0.279205,121.464 L -0.460464,121.417 L -0.634445,121.348 L -0.798431,121.258 L -0.949814,121.148
 L -1.08623,121.02 L -1.20551,120.876 L -1.30577,120.718 L -1.38545,120.549 L -1.44328,120.371 L -1.47835,120.187
 L -1.4901,120 L -1.47835,119.813 L -1.44328,119.629 L -1.38545,119.451 L -1.30577,119.282 L -1.20551,119.124
 L -1.08623,118.98 L -0.949814,118.852 L -0.798431,118.742 L -0.634445,118.652 L -0.460464,118.583 L -0.279205,118.536
 L -0.0935516,118.513 L 0.0935516,118.513 L 0.279205,118.536 L 0.460464,118.583 L 0.634445,118.652 L 0.798431,118.742
 L 0.949814,118.852 L 1.08623,118.98 L 1.20551,119.124 L 1.30577,119.282 L 1.38545,119.451 L 1.44328,119.629
 L 1.47835,119.813 L 1.4901,120 L 1.47835,120.187 L 1.44328,120.371 L 1.38545,120.549 L 1.30577,120.718
 L 1.20551,120.876 L 1.08623,121.02 L 0.949814,121.148 L 0.798431,121.258 L 0.634445,121.348 L 0.460464,121.417
 L 0.279205,121.464 L 0.0935516,121.487 z
" stroke="black" fill="lightgray" stroke-width="0.5"/></svg>
